<svg version="1.1" id="Layer_1" xmlns="http://www.w3.org/2000/svg" xmlns:xlink="http://www.w3.org/1999/xlink" x="0px" y="0px"
	 width="100%" viewBox="0 0 1500 1500" enable-background="new 0 0 1500 1500" xml:space="preserve">
<path fill="#000000" opacity="1.000000" stroke="none" 
	d="
M803.000000,1501.000000 
	C535.333374,1501.000000 268.166748,1501.000000 1.000108,1501.000000 
	C1.000072,1001.000122 1.000072,501.000275 1.000036,1.000309 
	C500.999756,1.000206 1000.999512,1.000206 1500.999512,1.000103 
	C1500.999634,500.999664 1500.999634,1000.999329 1500.999756,1500.999512 
	C1268.500000,1501.000000 1036.000000,1501.000000 803.000000,1501.000000 
M638.917114,1069.548340 
	C642.542847,1072.444702 645.956909,1075.667358 649.831604,1078.179810 
	C665.125061,1088.096069 680.272095,1098.289551 696.015015,1107.449463 
	C720.476501,1121.682373 746.412659,1132.885620 773.544495,1140.922363 
	C790.194824,1145.854370 807.114136,1150.173218 824.178711,1153.328857 
	C841.238525,1156.483643 858.584045,1159.088135 875.885620,1159.724487 
	C907.418457,1160.884521 938.910828,1159.996094 970.197327,1154.225220 
	C1000.166626,1148.697144 1029.325195,1140.734497 1057.450928,1129.140381 
	C1085.608765,1117.532959 1112.596680,1103.553955 1137.322998,1085.694336 
	C1152.218018,1074.935791 1167.174316,1063.992432 1180.554199,1051.476440 
	C1196.052246,1036.978882 1210.289917,1021.048401 1224.275269,1005.041504 
	C1241.469482,985.361877 1255.226196,963.178528 1267.779785,940.328064 
	C1280.522095,917.133728 1290.575317,892.689087 1298.550415,867.494080 
	C1308.532349,835.959229 1314.773804,803.570068 1316.808716,770.550842 
	C1317.806885,754.351868 1317.196655,738.039856 1316.980469,721.783447 
	C1316.690796,700.004028 1313.440308,678.564758 1309.091553,657.253174 
	C1298.587402,605.776367 1279.019165,558.017944 1250.516479,513.920715 
	C1230.399414,482.797424 1206.462646,454.972626 1178.861450,430.182495 
	C1163.144775,416.066528 1146.551147,403.214294 1128.969604,391.573151 
	C1100.586914,372.780182 1070.405518,357.374451 1038.098022,346.827667 
	C1016.259216,339.698395 993.870056,333.807739 971.326538,329.422211 
	C952.383850,325.737183 932.900574,324.406921 913.583862,323.216248 
	C900.523987,322.411255 887.286377,323.041748 874.220520,324.134247 
	C855.921204,325.664307 837.529846,327.251404 819.497925,330.559265 
	C789.924927,335.984314 761.220398,344.798828 733.688232,357.071136 
	C732.056396,357.798492 730.359497,359.766235 729.899231,361.480682 
	C728.401245,367.059692 727.621582,372.826691 726.284790,378.454681 
	C718.136047,412.760803 701.842285,442.862640 678.366577,468.979309 
	C661.572693,487.662537 641.752930,502.691406 619.405273,514.239014 
	C593.562378,527.592712 565.959106,534.685242 537.047546,537.116882 
	C535.293823,537.264343 532.904785,538.622803 532.119629,540.109009 
	C526.693359,550.379578 521.185120,560.644592 516.505798,571.264893 
	C503.293427,601.252075 493.528687,632.301331 487.491272,664.600281 
	C482.964813,688.816223 480.695221,713.221069 480.243378,737.723816 
	C479.944672,753.922058 481.253174,770.246399 483.139709,786.362366 
	C485.176331,803.760376 488.021576,821.135254 491.769409,838.245300 
	C498.214874,867.670776 508.613434,895.835205 521.571533,923.028931 
	C522.773865,925.552185 522.848755,927.275940 520.289795,928.859009 
	C499.699554,941.597290 479.056885,954.254578 458.630188,967.250854 
	C454.096191,970.135620 450.303802,969.904785 445.654358,967.954834 
	C425.189728,959.372253 404.458618,959.616821 385.171600,970.241699 
	C366.615936,980.463867 349.147522,992.676208 331.312347,1004.185974 
	C299.117035,1024.963013 266.991669,1045.848511 234.860703,1066.725098 
	C199.808624,1089.499390 164.739151,1112.247681 129.769485,1135.148071 
	C116.781334,1143.653687 102.906548,1151.010742 92.927124,1163.519775 
	C79.288429,1180.615967 74.457321,1200.184326 77.477486,1221.441895 
	C80.005432,1239.235107 88.292603,1254.390381 102.425583,1265.905396 
	C124.502975,1283.893311 149.310501,1289.204102 175.898605,1278.671021 
	C188.225189,1273.787720 199.391953,1265.803345 210.755310,1258.698364 
	C234.240265,1244.014282 257.429871,1228.858276 280.877533,1214.113770 
	C314.432190,1193.013550 348.104187,1172.099976 381.735504,1151.121704 
	C404.812653,1136.726807 427.874664,1122.307129 451.006317,1108.000122 
	C460.931458,1101.861450 470.584595,1095.460938 477.934601,1086.160889 
	C489.419037,1071.629639 494.937805,1055.150757 493.938385,1036.635132 
	C493.712189,1032.445190 495.211090,1029.870605 498.745972,1027.723877 
	C509.802856,1021.009460 520.697449,1014.028137 531.671082,1007.176147 
	C539.829102,1002.082214 548.002014,997.011902 556.190063,991.966309 
	C558.865540,990.317566 561.230835,989.192932 563.901306,992.590271 
	C571.066589,1001.706116 578.386292,1010.716370 585.989380,1019.469055 
	C601.826599,1037.700928 619.350769,1054.194580 638.917114,1069.548340 
M566.195435,461.834259 
	C575.901428,457.990967 586.086914,455.040619 595.222046,450.134430 
	C621.058105,436.258698 640.875732,416.010559 654.000305,389.742371 
	C669.483398,358.753540 673.042847,326.134552 664.596741,292.530548 
	C656.850037,261.708893 640.087524,236.277740 615.077148,216.886063 
	C582.613281,191.715408 545.344666,182.352081 505.053833,189.444595 
	C464.954803,196.503357 433.214142,217.615189 411.164825,252.324036 
	C391.927307,282.606720 385.080292,315.736023 391.359924,350.888428 
	C398.367981,390.118286 418.688568,421.426636 452.092590,443.536072 
	C471.749146,456.546356 493.465637,463.941406 517.158386,466.239288 
	C533.669556,467.840637 549.515137,465.623199 566.195435,461.834259 
M1144.605347,1175.132690 
	C1118.772949,1189.625000 1091.899414,1201.872803 1063.891479,1211.462646 
	C1036.894165,1220.706543 1009.330994,1227.754517 981.083130,1232.307617 
	C955.803467,1236.382324 930.439331,1238.745239 904.871948,1238.934448 
	C895.245789,1239.005737 885.600281,1238.554443 875.988403,1237.947998 
	C862.757385,1237.113159 849.399475,1236.812012 836.366333,1234.650879 
	C814.993042,1231.107178 793.675476,1226.915649 772.628540,1221.789795 
	C742.905334,1214.550781 714.361450,1203.765015 686.792053,1190.419067 
	C661.344849,1178.100464 636.834167,1164.219116 613.711426,1147.913330 
	C609.607239,1145.019043 605.196655,1140.415161 600.956909,1140.447632 
	C596.532166,1140.481323 592.106506,1145.105835 587.749817,1147.833130 
	C584.330078,1149.973877 581.014954,1152.281860 576.658508,1155.176514 
	C578.668701,1156.666992 579.878540,1157.552979 581.076965,1158.453979 
	C623.119263,1190.066406 668.625732,1215.536499 717.959412,1233.731079 
	C768.333618,1252.309326 820.493042,1263.250122 874.170105,1265.782227 
	C892.909180,1266.666260 911.781006,1265.899292 930.538269,1264.886475 
	C947.218872,1263.985718 963.871765,1262.068359 980.452942,1259.944702 
	C1006.476013,1256.611450 1031.908081,1250.402222 1056.905151,1242.507202 
	C1096.147583,1230.112915 1133.552979,1213.582153 1168.979492,1192.557007 
	C1202.208008,1172.836426 1232.897827,1149.722778 1260.984863,1123.278931 
	C1273.429932,1111.561890 1284.729126,1098.616699 1296.398560,1086.089478 
	C1313.403442,1067.834717 1327.953613,1047.687744 1341.529541,1026.812744 
	C1358.772827,1000.299072 1373.548706,972.437073 1385.698608,943.270081 
	C1399.501709,910.135132 1410.453369,875.990356 1416.450562,840.566711 
	C1420.590576,816.112366 1424.411743,791.418884 1425.615723,766.697876 
	C1427.254761,733.043091 1426.333008,699.311157 1421.219482,665.768494 
	C1416.986816,638.004028 1411.019531,610.692261 1402.761475,583.919006 
	C1391.623413,547.808533 1376.633545,513.276062 1357.763550,480.507874 
	C1337.416260,445.174377 1313.619751,412.274170 1285.779297,382.488647 
	C1268.874878,364.403259 1250.918701,347.351227 1231.518188,331.818756 
	C1206.456787,311.753906 1180.023193,293.782898 1151.830444,278.525665 
	C1120.223877,261.420898 1087.181396,247.629105 1052.692749,237.298279 
	C1010.902161,224.780258 968.237122,217.228500 924.718201,215.221909 
	C905.977234,214.357803 887.068359,214.753403 868.359680,216.190598 
	C846.271362,217.887436 824.216797,220.699890 802.330750,224.180099 
	C776.261230,228.325531 750.964233,235.837479 726.012268,244.450073 
	C722.986206,245.494583 721.708862,246.656113 722.790527,250.192108 
	C725.013062,257.458008 726.706116,264.885895 728.777954,272.866730 
	C733.737610,271.141235 738.502930,269.360443 743.344360,267.818787 
	C775.929993,257.442352 808.932739,248.889847 843.136353,245.953857 
	C860.801819,244.437469 878.483643,242.691742 896.189758,242.205353 
	C909.587280,241.837296 923.099182,242.689453 936.445618,244.090469 
	C956.677551,246.214279 976.916931,248.659393 996.962708,252.083008 
	C1041.443604,259.679840 1083.417114,275.126343 1123.732178,295.053802 
	C1145.752075,305.938049 1166.730347,318.682983 1186.868652,332.848389 
	C1216.461792,353.664246 1243.375000,377.367889 1267.784302,404.097076 
	C1287.535889,425.725983 1305.006714,448.979218 1321.012207,473.445496 
	C1343.047119,507.127991 1359.859985,543.324646 1372.846436,581.295044 
	C1380.948242,604.984070 1386.939819,629.253601 1391.317017,653.969910 
	C1395.781860,679.180847 1398.213135,704.563049 1398.806763,730.068848 
	C1399.184692,746.303162 1397.918823,762.594727 1396.954956,778.834778 
	C1396.297607,789.907349 1395.738647,801.099854 1393.639038,811.949036 
	C1389.269653,834.527771 1384.560669,857.083862 1378.791016,879.337952 
	C1371.021729,909.304626 1359.436890,938.029053 1344.981445,965.325439 
	C1333.752808,986.528870 1320.786255,1006.859680 1307.812866,1027.078369 
	C1294.615845,1047.645386 1278.445923,1065.975098 1261.673462,1083.686035 
	C1253.218628,1092.614014 1244.399292,1101.284790 1235.051270,1109.259033 
	C1220.185547,1121.939819 1205.165405,1134.521973 1189.412598,1146.056030 
	C1175.261719,1156.417114 1160.036255,1165.310791 1144.605347,1175.132690 
M421.125763,524.700623 
	C407.352081,556.032104 396.489777,588.324280 388.590546,621.643738 
	C381.079712,653.325012 376.576569,685.460999 375.240723,717.909912 
	C374.373413,738.977417 374.756989,760.204407 376.307648,781.232483 
	C377.789093,801.321533 381.426483,821.257263 384.309875,841.232483 
	C384.875519,845.151184 386.326630,848.942078 387.516205,853.334106 
	C394.623047,848.979553 400.715729,844.978333 407.070709,841.449463 
	C411.105682,839.208801 411.601166,836.414185 410.962799,832.111938 
	C408.099182,812.812134 404.745697,793.518921 403.300110,774.094543 
	C402.011047,756.772888 402.916748,739.281860 402.990692,721.866150 
	C403.085968,699.429016 406.116821,677.302795 409.856842,655.215454 
	C415.357330,622.731750 424.328461,591.247498 436.222900,560.581543 
	C440.889160,548.551147 446.132080,536.744385 451.349670,524.268250 
	C443.172821,520.559875 435.100189,516.898865 426.723114,513.099731 
	C424.889923,516.924927 423.186890,520.478577 421.125763,524.700623 
z"/>
<path fill="#424242" opacity="1.000000" stroke="none" 
	d="
M638.618713,1069.347412 
	C619.350769,1054.194580 601.826599,1037.700928 585.989380,1019.469055 
	C578.386292,1010.716370 571.066589,1001.706116 563.901306,992.590271 
	C561.230835,989.192932 558.865540,990.317566 556.190063,991.966309 
	C548.002014,997.011902 539.829102,1002.082214 531.671082,1007.176147 
	C520.697449,1014.028137 509.802856,1021.009460 498.745972,1027.723877 
	C495.211090,1029.870605 493.712189,1032.445190 493.938385,1036.635132 
	C494.937805,1055.150757 489.419037,1071.629639 477.934601,1086.160889 
	C470.584595,1095.460938 460.931458,1101.861450 451.006317,1108.000122 
	C427.874664,1122.307129 404.812653,1136.726807 381.735504,1151.121704 
	C348.104187,1172.099976 314.432190,1193.013550 280.877533,1214.113770 
	C257.429871,1228.858276 234.240265,1244.014282 210.755310,1258.698364 
	C199.391953,1265.803345 188.225189,1273.787720 175.898605,1278.671021 
	C149.310501,1289.204102 124.502975,1283.893311 102.425583,1265.905396 
	C88.292603,1254.390381 80.005432,1239.235107 77.477486,1221.441895 
	C74.457321,1200.184326 79.288429,1180.615967 92.927124,1163.519775 
	C102.906548,1151.010742 116.781334,1143.653687 129.769485,1135.148071 
	C164.739151,1112.247681 199.808624,1089.499390 234.860703,1066.725098 
	C266.991669,1045.848511 299.117035,1024.963013 331.312347,1004.185974 
	C349.147522,992.676208 366.615936,980.463867 385.171600,970.241699 
	C404.458618,959.616821 425.189728,959.372253 445.654358,967.954834 
	C450.303802,969.904785 454.096191,970.135620 458.630188,967.250854 
	C479.056885,954.254578 499.699554,941.597290 520.289795,928.859009 
	C522.848755,927.275940 522.773865,925.552185 521.571533,923.028931 
	C508.613434,895.835205 498.214874,867.670776 491.769409,838.245300 
	C488.021576,821.135254 485.176331,803.760376 483.139709,786.362366 
	C481.253174,770.246399 479.944672,753.922058 480.243378,737.723816 
	C480.695221,713.221069 482.964813,688.816223 487.491272,664.600281 
	C493.528687,632.301331 503.293427,601.252075 516.505798,571.264893 
	C521.185120,560.644592 526.693359,550.379578 532.119629,540.109009 
	C532.904785,538.622803 535.293823,537.264343 537.047546,537.116882 
	C565.959106,534.685242 593.562378,527.592712 619.405273,514.239014 
	C641.752930,502.691406 661.572693,487.662537 678.366577,468.979309 
	C701.842285,442.862640 718.136047,412.760803 726.284790,378.454681 
	C727.621582,372.826691 728.401245,367.059692 729.899231,361.480682 
	C730.359497,359.766235 732.056396,357.798492 733.688232,357.071136 
	C761.220398,344.798828 789.924927,335.984314 819.497925,330.559265 
	C837.529846,327.251404 855.921204,325.664307 874.220520,324.134247 
	C887.286377,323.041748 900.523987,322.411255 913.583862,323.216248 
	C932.900574,324.406921 952.383850,325.737183 971.326538,329.422211 
	C993.870056,333.807739 1016.259216,339.698395 1038.098022,346.827667 
	C1070.405518,357.374451 1100.586914,372.780182 1128.969604,391.573151 
	C1146.551147,403.214294 1163.144775,416.066528 1178.861450,430.182495 
	C1206.462646,454.972626 1230.399414,482.797424 1250.516479,513.920715 
	C1279.019165,558.017944 1298.587402,605.776367 1309.091553,657.253174 
	C1313.440308,678.564758 1316.690796,700.004028 1316.980469,721.783447 
	C1317.196655,738.039856 1317.806885,754.351868 1316.808716,770.550842 
	C1314.773804,803.570068 1308.532349,835.959229 1298.550415,867.494080 
	C1290.575317,892.689087 1280.522095,917.133728 1267.779785,940.328064 
	C1255.226196,963.178528 1241.469482,985.361877 1224.275269,1005.041504 
	C1210.289917,1021.048401 1196.052246,1036.978882 1180.554199,1051.476440 
	C1167.174316,1063.992432 1152.218018,1074.935791 1137.322998,1085.694336 
	C1112.596680,1103.553955 1085.608765,1117.532959 1057.450928,1129.140381 
	C1029.325195,1140.734497 1000.166626,1148.697144 970.197327,1154.225220 
	C938.910828,1159.996094 907.418457,1160.884521 875.885620,1159.724487 
	C858.584045,1159.088135 841.238525,1156.483643 824.178711,1153.328857 
	C807.114136,1150.173218 790.194824,1145.854370 773.544495,1140.922363 
	C746.412659,1132.885620 720.476501,1121.682373 696.015015,1107.449463 
	C680.272095,1098.289551 665.125061,1088.096069 649.831604,1078.179810 
	C645.956909,1075.667358 642.542847,1072.444702 638.618713,1069.347412 
M1106.491211,529.993652 
	C1099.807007,524.292725 1093.283691,518.389282 1086.409912,512.927002 
	C1060.094971,492.015656 1031.255981,475.704376 999.421936,464.578522 
	C975.174744,456.104279 950.337402,450.451508 924.843262,448.269775 
	C911.180786,447.100586 897.314148,447.420380 883.591431,448.104889 
	C870.048584,448.780487 856.392639,449.824219 843.098206,452.348694 
	C803.524414,459.863281 766.924011,475.074097 733.247192,497.216125 
	C707.533630,514.122437 685.226074,534.793274 665.836060,558.637451 
	C644.501160,584.873230 628.130005,613.916504 616.601929,645.720642 
	C606.761292,672.869202 600.800842,700.895264 599.230225,729.639526 
	C597.934082,753.361328 599.106689,777.081604 603.627380,800.576660 
	C608.032715,823.472595 614.497498,845.629761 623.807617,867.044983 
	C636.691162,896.680054 653.672485,923.698669 675.297424,947.593811 
	C694.740173,969.077759 716.540466,987.968750 741.490112,1003.024536 
	C764.321655,1016.802185 788.221497,1028.079346 813.909302,1035.505127 
	C839.522461,1042.909302 865.640808,1047.039551 892.247131,1047.908081 
	C900.357361,1048.172729 908.559814,1047.837524 916.620972,1046.913086 
	C932.884033,1045.048340 949.236267,1043.383789 965.268311,1040.206543 
	C994.976135,1034.318970 1022.542664,1022.528870 1048.865356,1007.637146 
	C1078.207520,991.037292 1103.842651,969.913879 1125.832031,944.487732 
	C1145.692017,921.523743 1161.883911,896.143494 1173.985596,868.184204 
	C1191.411865,827.923096 1200.773560,786.090149 1198.942993,742.078796 
	C1198.392456,728.842712 1197.640625,715.557922 1195.892456,702.440552 
	C1192.211182,674.818787 1184.014038,648.392029 1172.482422,623.055908 
	C1156.553101,588.057922 1134.442139,557.370300 1106.491211,529.993652 
z"/>
<path fill="#424242" opacity="1.000000" stroke="none" 
	d="
M565.797607,461.924316 
	C549.515137,465.623199 533.669556,467.840637 517.158386,466.239288 
	C493.465637,463.941406 471.749146,456.546356 452.092590,443.536072 
	C418.688568,421.426636 398.367981,390.118286 391.359924,350.888428 
	C385.080292,315.736023 391.927307,282.606720 411.164825,252.324036 
	C433.214142,217.615189 464.954803,196.503357 505.053833,189.444595 
	C545.344666,182.352081 582.613281,191.715408 615.077148,216.886063 
	C640.087524,236.277740 656.850037,261.708893 664.596741,292.530548 
	C673.042847,326.134552 669.483398,358.753540 654.000305,389.742371 
	C640.875732,416.010559 621.058105,436.258698 595.222046,450.134430 
	C586.086914,455.040619 575.901428,457.990967 565.797607,461.924316 
z"/>
<path fill="#424242" opacity="1.000000" stroke="none" 
	d="
M1144.945068,1174.992188 
	C1160.036255,1165.310791 1175.261719,1156.417114 1189.412598,1146.056030 
	C1205.165405,1134.521973 1220.185547,1121.939819 1235.051270,1109.259033 
	C1244.399292,1101.284790 1253.218628,1092.614014 1261.673462,1083.686035 
	C1278.445923,1065.975098 1294.615845,1047.645386 1307.812866,1027.078369 
	C1320.786255,1006.859680 1333.752808,986.528870 1344.981445,965.325439 
	C1359.436890,938.029053 1371.021729,909.304626 1378.791016,879.337952 
	C1384.560669,857.083862 1389.269653,834.527771 1393.639038,811.949036 
	C1395.738647,801.099854 1396.297607,789.907349 1396.954956,778.834778 
	C1397.918823,762.594727 1399.184692,746.303162 1398.806763,730.068848 
	C1398.213135,704.563049 1395.781860,679.180847 1391.317017,653.969910 
	C1386.939819,629.253601 1380.948242,604.984070 1372.846436,581.295044 
	C1359.859985,543.324646 1343.047119,507.127991 1321.012207,473.445496 
	C1305.006714,448.979218 1287.535889,425.725983 1267.784302,404.097076 
	C1243.375000,377.367889 1216.461792,353.664246 1186.868652,332.848389 
	C1166.730347,318.682983 1145.752075,305.938049 1123.732178,295.053802 
	C1083.417114,275.126343 1041.443604,259.679840 996.962708,252.083008 
	C976.916931,248.659393 956.677551,246.214279 936.445618,244.090469 
	C923.099182,242.689453 909.587280,241.837296 896.189758,242.205353 
	C878.483643,242.691742 860.801819,244.437469 843.136353,245.953857 
	C808.932739,248.889847 775.929993,257.442352 743.344360,267.818787 
	C738.502930,269.360443 733.737610,271.141235 728.777954,272.866730 
	C726.706116,264.885895 725.013062,257.458008 722.790527,250.192108 
	C721.708862,246.656113 722.986206,245.494583 726.012268,244.450073 
	C750.964233,235.837479 776.261230,228.325531 802.330750,224.180099 
	C824.216797,220.699890 846.271362,217.887436 868.359680,216.190598 
	C887.068359,214.753403 905.977234,214.357803 924.718201,215.221909 
	C968.237122,217.228500 1010.902161,224.780258 1052.692749,237.298279 
	C1087.181396,247.629105 1120.223877,261.420898 1151.830444,278.525665 
	C1180.023193,293.782898 1206.456787,311.753906 1231.518188,331.818756 
	C1250.918701,347.351227 1268.874878,364.403259 1285.779297,382.488647 
	C1313.619751,412.274170 1337.416260,445.174377 1357.763550,480.507874 
	C1376.633545,513.276062 1391.623413,547.808533 1402.761475,583.919006 
	C1411.019531,610.692261 1416.986816,638.004028 1421.219482,665.768494 
	C1426.333008,699.311157 1427.254761,733.043091 1425.615723,766.697876 
	C1424.411743,791.418884 1420.590576,816.112366 1416.450562,840.566711 
	C1410.453369,875.990356 1399.501709,910.135132 1385.698608,943.270081 
	C1373.548706,972.437073 1358.772827,1000.299072 1341.529541,1026.812744 
	C1327.953613,1047.687744 1313.403442,1067.834717 1296.398560,1086.089478 
	C1284.729126,1098.616699 1273.429932,1111.561890 1260.984863,1123.278931 
	C1232.897827,1149.722778 1202.208008,1172.836426 1168.979492,1192.557007 
	C1133.552979,1213.582153 1096.147583,1230.112915 1056.905151,1242.507202 
	C1031.908081,1250.402222 1006.476013,1256.611450 980.452942,1259.944702 
	C963.871765,1262.068359 947.218872,1263.985718 930.538269,1264.886475 
	C911.781006,1265.899292 892.909180,1266.666260 874.170105,1265.782227 
	C820.493042,1263.250122 768.333618,1252.309326 717.959412,1233.731079 
	C668.625732,1215.536499 623.119263,1190.066406 581.076965,1158.453979 
	C579.878540,1157.552979 578.668701,1156.666992 576.658508,1155.176514 
	C581.014954,1152.281860 584.330078,1149.973877 587.749817,1147.833130 
	C592.106506,1145.105835 596.532166,1140.481323 600.956909,1140.447632 
	C605.196655,1140.415161 609.607239,1145.019043 613.711426,1147.913330 
	C636.834167,1164.219116 661.344849,1178.100464 686.792053,1190.419067 
	C714.361450,1203.765015 742.905334,1214.550781 772.628540,1221.789795 
	C793.675476,1226.915649 814.993042,1231.107178 836.366333,1234.650879 
	C849.399475,1236.812012 862.757385,1237.113159 875.988403,1237.947998 
	C885.600281,1238.554443 895.245789,1239.005737 904.871948,1238.934448 
	C930.439331,1238.745239 955.803467,1236.382324 981.083130,1232.307617 
	C1009.330994,1227.754517 1036.894165,1220.706543 1063.891479,1211.462646 
	C1091.899414,1201.872803 1118.772949,1189.625000 1144.945068,1174.992188 
z"/>
<path fill="#424242" opacity="1.000000" stroke="none" 
	d="
M421.304810,524.366455 
	C423.186890,520.478577 424.889923,516.924927 426.723114,513.099731 
	C435.100189,516.898865 443.172821,520.559875 451.349670,524.268250 
	C446.132080,536.744385 440.889160,548.551147 436.222900,560.581543 
	C424.328461,591.247498 415.357330,622.731750 409.856842,655.215454 
	C406.116821,677.302795 403.085968,699.429016 402.990692,721.866150 
	C402.916748,739.281860 402.011047,756.772888 403.300110,774.094543 
	C404.745697,793.518921 408.099182,812.812134 410.962799,832.111938 
	C411.601166,836.414185 411.105682,839.208801 407.070709,841.449463 
	C400.715729,844.978333 394.623047,848.979553 387.516205,853.334106 
	C386.326630,848.942078 384.875519,845.151184 384.309875,841.232483 
	C381.426483,821.257263 377.789093,801.321533 376.307648,781.232483 
	C374.756989,760.204407 374.373413,738.977417 375.240723,717.909912 
	C376.576569,685.460999 381.079712,653.325012 388.590546,621.643738 
	C396.489777,588.324280 407.352081,556.032104 421.304810,524.366455 
z"/>
<path fill="#000000" opacity="1.000000" stroke="none" 
	d="
M1106.741577,530.242676 
	C1134.442139,557.370300 1156.553101,588.057922 1172.482422,623.055908 
	C1184.014038,648.392029 1192.211182,674.818787 1195.892456,702.440552 
	C1197.640625,715.557922 1198.392456,728.842712 1198.942993,742.078796 
	C1200.773560,786.090149 1191.411865,827.923096 1173.985596,868.184204 
	C1161.883911,896.143494 1145.692017,921.523743 1125.832031,944.487732 
	C1103.842651,969.913879 1078.207520,991.037292 1048.865356,1007.637146 
	C1022.542664,1022.528870 994.976135,1034.318970 965.268311,1040.206543 
	C949.236267,1043.383789 932.884033,1045.048340 916.620972,1046.913086 
	C908.559814,1047.837524 900.357361,1048.172729 892.247131,1047.908081 
	C865.640808,1047.039551 839.522461,1042.909302 813.909302,1035.505127 
	C788.221497,1028.079346 764.321655,1016.802185 741.490112,1003.024536 
	C716.540466,987.968750 694.740173,969.077759 675.297424,947.593811 
	C653.672485,923.698669 636.691162,896.680054 623.807617,867.044983 
	C614.497498,845.629761 608.032715,823.472595 603.627380,800.576660 
	C599.106689,777.081604 597.934082,753.361328 599.230225,729.639526 
	C600.800842,700.895264 606.761292,672.869202 616.601929,645.720642 
	C628.130005,613.916504 644.501160,584.873230 665.836060,558.637451 
	C685.226074,534.793274 707.533630,514.122437 733.247192,497.216125 
	C766.924011,475.074097 803.524414,459.863281 843.098206,452.348694 
	C856.392639,449.824219 870.048584,448.780487 883.591431,448.104889 
	C897.314148,447.420380 911.180786,447.100586 924.843262,448.269775 
	C950.337402,450.451508 975.174744,456.104279 999.421936,464.578522 
	C1031.255981,475.704376 1060.094971,492.015656 1086.409912,512.927002 
	C1093.283691,518.389282 1099.807007,524.292725 1106.741577,530.242676 
M953.000000,683.501221 
	C952.994019,688.500366 952.886658,693.502197 953.019348,698.497681 
	C953.101501,701.594055 952.086182,702.982178 948.754333,703.034180 
	C935.956848,703.233948 923.161255,703.609009 910.367920,704.011719 
	C890.942200,704.622986 871.507996,705.085144 852.097656,706.028625 
	C830.915405,707.058167 810.369385,711.202209 790.867126,719.891113 
	C774.049622,727.383789 759.489624,737.861450 748.304260,752.556946 
	C735.090393,769.917664 729.817505,790.255249 728.160583,811.519165 
	C727.050110,825.770142 727.919067,840.087341 731.063477,854.138245 
	C738.776306,888.603149 758.740723,912.616455 792.012329,925.093079 
	C816.770325,934.377014 842.311340,935.018860 868.073486,930.999512 
	C901.140869,925.840332 927.522461,909.183716 947.934631,882.945618 
	C952.705688,876.812866 956.590027,869.995361 961.036377,863.600037 
	C961.766846,862.549438 963.297424,862.055115 964.458191,861.303650 
	C964.965210,862.411987 965.650513,863.474243 965.951111,864.635986 
	C968.433228,874.226807 969.882141,884.214722 973.481934,893.358826 
	C980.389221,910.904785 993.259827,922.501160 1011.907104,927.150940 
	C1025.372803,930.508667 1039.023315,931.855652 1052.775024,929.956360 
	C1067.180054,927.966858 1081.516357,925.450195 1095.828003,922.861206 
	C1097.388062,922.579041 1099.747314,920.319519 1099.774048,918.939148 
	C1100.061157,904.113159 1100.022827,889.278564 1099.814331,874.449951 
	C1099.798584,873.331726 1097.799316,871.303955 1096.722534,871.304260 
	C1092.604980,871.305542 1088.483154,871.922852 1084.371094,872.383179 
	C1069.141357,874.088257 1057.287476,868.761292 1053.153320,854.332031 
	C1050.894165,846.447510 1049.250122,838.086853 1049.180054,829.924988 
	C1048.800781,785.765747 1049.051636,741.601440 1048.975098,697.439087 
	C1048.943481,679.180664 1048.220947,661.009888 1044.132202,643.046997 
	C1037.850952,615.451172 1023.348572,593.428223 1000.585327,576.845825 
	C976.655579,559.413635 948.937073,552.837463 920.150085,551.238037 
	C890.739990,549.603943 861.405457,551.184265 832.867676,559.963867 
	C812.875793,566.114380 794.674805,575.476746 779.632690,590.031799 
	C761.315430,607.755981 750.671326,629.724487 745.738525,654.679565 
	C744.782959,659.513550 746.402893,659.986755 750.333313,660.054626 
	C760.464966,660.229675 770.596497,660.600891 780.718872,661.086548 
	C799.444214,661.984741 818.158386,663.123718 836.886719,663.945862 
	C843.905823,664.253967 843.857910,663.968384 845.107666,656.721924 
	C845.585388,653.951660 846.341492,651.222839 847.082703,648.505676 
	C850.956055,634.307251 857.640015,621.957764 872.236328,616.578735 
	C885.825012,611.571167 900.024902,610.490601 914.342529,613.656555 
	C929.278503,616.959229 939.948059,625.260925 945.962402,639.648132 
	C951.729065,653.442871 953.373657,667.772400 953.000000,683.501221 
z"/>
<path fill="#424242" opacity="1.000000" stroke="none" 
	d="
M953.000000,683.001953 
	C953.373657,667.772400 951.729065,653.442871 945.962402,639.648132 
	C939.948059,625.260925 929.278503,616.959229 914.342529,613.656555 
	C900.024902,610.490601 885.825012,611.571167 872.236328,616.578735 
	C857.640015,621.957764 850.956055,634.307251 847.082703,648.505676 
	C846.341492,651.222839 845.585388,653.951660 845.107666,656.721924 
	C843.857910,663.968384 843.905823,664.253967 836.886719,663.945862 
	C818.158386,663.123718 799.444214,661.984741 780.718872,661.086548 
	C770.596497,660.600891 760.464966,660.229675 750.333313,660.054626 
	C746.402893,659.986755 744.782959,659.513550 745.738525,654.679565 
	C750.671326,629.724487 761.315430,607.755981 779.632690,590.031799 
	C794.674805,575.476746 812.875793,566.114380 832.867676,559.963867 
	C861.405457,551.184265 890.739990,549.603943 920.150085,551.238037 
	C948.937073,552.837463 976.655579,559.413635 1000.585327,576.845825 
	C1023.348572,593.428223 1037.850952,615.451172 1044.132202,643.046997 
	C1048.220947,661.009888 1048.943481,679.180664 1048.975098,697.439087 
	C1049.051636,741.601440 1048.800781,785.765747 1049.180054,829.924988 
	C1049.250122,838.086853 1050.894165,846.447510 1053.153320,854.332031 
	C1057.287476,868.761292 1069.141357,874.088257 1084.371094,872.383179 
	C1088.483154,871.922852 1092.604980,871.305542 1096.722534,871.304260 
	C1097.799316,871.303955 1099.798584,873.331726 1099.814331,874.449951 
	C1100.022827,889.278564 1100.061157,904.113159 1099.774048,918.939148 
	C1099.747314,920.319519 1097.388062,922.579041 1095.828003,922.861206 
	C1081.516357,925.450195 1067.180054,927.966858 1052.775024,929.956360 
	C1039.023315,931.855652 1025.372803,930.508667 1011.907104,927.150940 
	C993.259827,922.501160 980.389221,910.904785 973.481934,893.358826 
	C969.882141,884.214722 968.433228,874.226807 965.951111,864.635986 
	C965.650513,863.474243 964.965210,862.411987 964.458252,861.303711 
	C963.297424,862.055115 961.766846,862.549438 961.036377,863.600037 
	C956.590027,869.995361 952.705688,876.812866 947.934631,882.945618 
	C927.522461,909.183716 901.140869,925.840332 868.073486,930.999512 
	C842.311340,935.018860 816.770325,934.377014 792.012329,925.093079 
	C758.740723,912.616455 738.776306,888.603149 731.063477,854.138245 
	C727.919067,840.087341 727.050110,825.770142 728.160583,811.519165 
	C729.817505,790.255249 735.090393,769.917664 748.304260,752.556946 
	C759.489624,737.861450 774.049622,727.383789 790.867126,719.891113 
	C810.369385,711.202209 830.915405,707.058167 852.097656,706.028625 
	C871.507996,705.085144 890.942200,704.622986 910.367920,704.011719 
	C923.161255,703.609009 935.956848,703.233948 948.754333,703.034180 
	C952.086182,702.982178 953.101501,701.594055 953.019348,698.497681 
	C952.886658,693.502197 952.994019,688.500366 953.000000,683.001953 
M842.023560,772.499390 
	C838.627319,777.740051 834.282471,782.602966 832.016541,788.293640 
	C825.760559,804.004578 826.016296,820.282166 829.948425,836.578735 
	C833.932678,853.091614 848.938782,865.903809 865.849792,866.944946 
	C895.358276,868.761475 918.442017,856.927368 935.414612,833.141479 
	C951.204285,811.013428 954.325623,785.511719 953.982910,759.222961 
	C953.944580,756.280029 952.620789,754.891357 949.718323,755.041626 
	C943.925964,755.341614 938.138245,755.746765 932.343628,755.986938 
	C915.600891,756.680847 898.841431,757.069885 882.115784,758.045776 
	C867.671204,758.888489 853.912231,762.197876 842.023560,772.499390 
z"/>
<path fill="#000000" opacity="1.000000" stroke="none" 
	d="
M842.284607,772.255981 
	C853.912231,762.197876 867.671204,758.888489 882.115784,758.045776 
	C898.841431,757.069885 915.600891,756.680847 932.343628,755.986938 
	C938.138245,755.746765 943.925964,755.341614 949.718323,755.041626 
	C952.620789,754.891357 953.944580,756.280029 953.982910,759.222961 
	C954.325623,785.511719 951.204285,811.013428 935.414612,833.141479 
	C918.442017,856.927368 895.358276,868.761475 865.849792,866.944946 
	C848.938782,865.903809 833.932678,853.091614 829.948425,836.578735 
	C826.016296,820.282166 825.760559,804.004578 832.016541,788.293640 
	C834.282471,782.602966 838.627319,777.740051 842.284607,772.255981 
z"/>
</svg>