<?xml version="1.0" encoding="UTF-8"?>
<svg version="1.1" xmlns="http://www.w3.org/2000/svg" width="1500" height="1500">
<path d="M0 0 C1.01078613 -0.00067474 2.02157227 -0.00134949 3.06298828 -0.00204468 C20.19041425 0.01601297 36.89914018 0.82318601 53.875 3.25 C55.09993164 3.42160645 56.32486328 3.59321289 57.58691406 3.77001953 C105.15866455 10.61756118 150.00761285 25.71757005 192.875 47.25 C193.9875415 47.8083252 193.9875415 47.8083252 195.12255859 48.37792969 C224.72292421 63.37544826 252.72340989 83.20016403 277.07421875 105.6953125 C279.20503494 107.63890216 281.35897369 109.52530087 283.546875 111.40234375 C288.73928293 115.93247659 293.577334 120.80651959 298.4375 125.6875 C299.34435547 126.59048828 300.25121094 127.49347656 301.18554688 128.42382812 C306.29138079 133.53706717 311.19944067 138.7414688 315.875 144.25 C316.79925038 145.31790639 317.72371714 146.38562555 318.6484375 147.453125 C324.69241323 154.50500009 330.44448709 161.71053048 335.875 169.25 C336.38933594 169.9601123 336.90367188 170.67022461 337.43359375 171.40185547 C376.33630645 225.31984729 402.55016871 287.48106874 412.875 353.25 C413.01389648 354.12221191 413.15279297 354.99442383 413.29589844 355.89306641 C423.2209672 419.44853612 418.1750253 486.13769173 397.875 547.25 C397.39909424 548.69415283 397.39909424 548.69415283 396.91357422 550.16748047 C375.70990973 614.07428989 339.90450133 670.41343951 292.39550781 717.91479492 C290.87013287 719.44237416 289.35299328 720.97783582 287.8359375 722.51367188 C281.5080898 728.87765649 274.91658741 734.6704837 267.875 740.25 C266.54625009 741.34635858 265.22039717 742.44624466 263.8984375 743.55078125 C250.79482416 754.4017153 237.00637883 764.20089659 222.56689453 773.1953125 C220.9131726 774.22620409 219.26702765 775.26921897 217.62109375 776.3125 C169.71826455 806.20752944 116.13380213 824.65672858 60.5625 833.5 C59.62301514 833.65122314 58.68353027 833.80244629 57.71557617 833.95825195 C38.11981707 836.8885981 18.47476275 837.65827336 -1.3125 837.625 C-2.48421753 837.62478851 -3.65593506 837.62457703 -4.86315918 837.62435913 C-49.07886822 837.54520153 -92.16292629 830.33497341 -134.125 816.25 C-134.79950195 816.02908691 -135.47400391 815.80817383 -136.16894531 815.58056641 C-188.3868366 798.44297653 -238.24643493 769.74628945 -278.71875 732.4453125 C-280.05150765 731.2293875 -281.39233828 730.02156973 -282.76391602 728.84960938 C-288.60084644 723.85361176 -294.05919385 718.50195411 -299.48803711 713.07226562 C-301.05108734 711.51139673 -302.62197365 709.95872112 -304.19335938 708.40625 C-310.62256033 702.01262054 -316.49194699 695.36817665 -322.125 688.25 C-323.0601426 687.11827772 -323.99936269 685.98989225 -324.9453125 684.8671875 C-329.80121474 679.08948687 -334.5481317 673.25145645 -339.125 667.25 C-348.41072142 672.352393 -357.36975145 677.8824405 -366.28759766 683.59960938 C-374.5438577 688.89240895 -382.85321868 694.0964557 -391.18115234 699.27563477 C-393.03865647 700.43260077 -394.89098921 701.5979317 -396.73681641 702.7734375 C-399.125 704.25 -399.125 704.25 -401.11865234 705.2578125 C-403.00779069 706.17058276 -403.00779069 706.17058276 -405.125 708.25 C-405.89566992 711.17401233 -405.81518141 713.99238636 -405.75 717 C-406.08473214 736.25077634 -412.11285522 752.78923754 -425.125 767.25 C-425.681875 767.91128906 -426.23875 768.57257812 -426.8125 769.25390625 C-433.34357352 776.47015936 -441.93275799 781.1666088 -450.125 786.25 C-451.99145973 787.41965697 -453.8573211 788.59026916 -455.72265625 789.76171875 C-460.81301653 792.95458648 -465.91150511 796.1342332 -471.01220703 799.31054688 C-476.05329797 802.45144307 -481.0889283 805.60106486 -486.125 808.75 C-488.12497255 810.00004391 -490.12497258 811.25004387 -492.125 812.5 C-493.61 813.428125 -493.61 813.428125 -495.125 814.375 C-600.125 880 -600.125 880 -603.12548828 881.87524414 C-605.12393384 883.12431328 -607.12230634 884.37349934 -609.12060547 885.62280273 C-614.14379335 888.76301136 -619.1682652 891.90112918 -624.1953125 895.03515625 C-636.64279798 902.79854609 -649.0461975 910.6271159 -661.41162109 918.52050781 C-664.13249422 920.25477677 -666.85670335 921.98367875 -669.58203125 923.7109375 C-671.40888823 924.86973796 -673.23571113 926.02859217 -675.0625 927.1875 C-675.96323242 927.75815186 -676.86396484 928.32880371 -677.79199219 928.91674805 C-682.57942599 931.95938464 -687.3360062 935.04111718 -692.05859375 938.18359375 C-724.96277697 960.05236106 -724.96277697 960.05236106 -744.125 961.25 C-745.300625 961.32927734 -745.300625 961.32927734 -746.5 961.41015625 C-764.71710612 962.03365839 -781.62445805 956.07317108 -796.125 945.25 C-796.85460937 944.70601562 -797.58421875 944.16203125 -798.3359375 943.6015625 C-812.99729261 931.72180836 -820.89312568 914.00969438 -823.66015625 895.7109375 C-825.67519573 875.18996072 -819.53212365 855.9189506 -807.0625 839.625 C-797.36202237 828.3834766 -784.6416841 820.85221001 -772.1796875 813.05859375 C-765.72949433 809.02114093 -759.36184526 804.86235871 -753 800.6875 C-750.80080771 799.24605338 -748.60158932 797.80464658 -746.40234375 796.36328125 C-745.3438623 795.66928223 -744.28538086 794.9752832 -743.19482422 794.26025391 C-732.00726709 786.93415677 -720.7796321 779.66927741 -709.54980469 772.40820312 C-701.58202956 767.25498972 -693.62796993 762.08069803 -685.67333984 756.90722656 C-680.66028811 753.64715805 -675.64621244 750.38866462 -670.63232422 747.12988281 C-666.42771689 744.39701145 -662.22336681 741.66374592 -658.01953125 738.9296875 C-649.53283758 733.41073333 -641.04240365 727.89775158 -632.5402832 722.40258789 C-628.85621792 720.0205422 -625.1755945 717.63338058 -621.5 715.23828125 C-612.13219664 709.1350298 -602.73749006 703.07714574 -593.3125 697.0625 C-586.06875207 692.4390046 -578.85824311 687.77998322 -571.7331543 682.97583008 C-565.32046956 678.67169566 -558.78239993 674.56537765 -552.25732422 670.43457031 C-546.81249623 666.98092357 -541.41077935 663.47617948 -536.0625 659.875 C-513.99882233 645.08716455 -494.61311199 636.56087902 -467.66015625 640.34375 C-464.70419817 641.10152047 -462.99028569 641.79478571 -460.43359375 643.28125 C-456.068681 645.6716112 -452.20033623 647.53898712 -447.125 647.25 C-438.75189239 644.16898047 -431.41427959 638.57475329 -424.19726562 633.41943359 C-420.06670303 630.50269971 -415.80063008 627.84329172 -411.5 625.1875 C-410.01052372 624.24537625 -408.52226403 623.30132666 -407.03515625 622.35546875 C-397.43087653 616.26893025 -387.77163465 610.26908389 -378.125 604.25 C-379.38322274 600.31344671 -380.80999567 596.56416875 -382.5234375 592.8046875 C-394.38766102 566.28275878 -404.06272629 538.70157005 -410.125 510.25 C-410.45854492 508.68596436 -410.45854492 508.68596436 -410.79882812 507.09033203 C-429.89751166 415.88187541 -420.58781892 314.62720184 -375.88671875 231.81640625 C-374.57221059 229.15532876 -373.72845649 227.07095167 -372.95703125 224.27734375 C-371.68315242 220.13788459 -370.32281558 217.3163985 -367.125 214.25 C-360.19746717 211.91728817 -352.63893947 211.95777061 -345.40234375 211.52050781 C-301.59586782 207.90477663 -260.0634972 183.14708916 -229.125 153.25 C-228.04025391 152.24259766 -228.04025391 152.24259766 -226.93359375 151.21484375 C-221.13821172 145.70044994 -216.31238504 139.42603546 -211.49658203 133.06152344 C-210.62036362 131.90425384 -209.73901544 130.75083867 -208.85107422 129.60253906 C-194.04178932 110.40161628 -184.02348214 88.30874881 -176.875 65.25 C-176.61581787 64.43208984 -176.35663574 63.61417969 -176.08959961 62.77148438 C-174.79251694 58.43165661 -173.98203467 54.42817437 -173.74609375 49.8984375 C-173.05306186 39.7124587 -173.05306186 39.7124587 -170.125 35.25 C-163.93141998 30.43569754 -156.07466566 28.46378193 -148.65234375 26.30029297 C-145.2509876 25.28751375 -141.93055093 24.14832352 -138.59375 22.94140625 C-106.45034135 11.42349237 -72.18944141 3.76990693 -38.125 1.25 C-37.02897461 1.16459961 -35.93294922 1.07919922 -34.80371094 0.99121094 C-23.20471161 0.16798 -11.62568955 0.00703821 0 0 Z M-71.125 132.25 C-72.13014648 132.49202148 -73.13529297 132.73404297 -74.17089844 132.98339844 C-123.8576841 145.25895725 -172.8005342 170.87087509 -208.63574219 207.83422852 C-210.125 209.25 -210.125 209.25 -212.125 210.25 C-212.125 210.91 -212.125 211.57 -212.125 212.25 C-212.785 212.25 -213.445 212.25 -214.125 212.25 C-215.69364082 213.8007907 -215.69364082 213.8007907 -217.3125 215.8125 C-219.56754748 218.47503039 -221.83638469 220.98319618 -224.375 223.375 C-229.88196485 228.82077635 -234.46753466 235.08216607 -239.125 241.25 C-239.64400879 241.93529785 -240.16301758 242.6205957 -240.69775391 243.32666016 C-249.35068214 254.82611976 -256.99507764 266.75388652 -264.125 279.25 C-264.5267041 279.94351563 -264.9284082 280.63703125 -265.34228516 281.3515625 C-303.3609168 347.44275001 -310.8060925 430.83999677 -291.16552734 503.81494141 C-287.54914165 516.56522343 -283.46319101 529.11182953 -278.125 541.25 C-277.61163086 542.44641113 -277.61163086 542.44641113 -277.08789062 543.66699219 C-262.75011015 576.99431153 -242.48868967 609.02158883 -216.125 634.25 C-213.60166489 636.75673422 -211.09724797 639.27853013 -208.6171875 641.828125 C-202.4562699 648.11777819 -196.07039435 653.81858807 -189.125 659.25 C-188.11695313 660.05179688 -187.10890625 660.85359375 -186.0703125 661.6796875 C-124.59148526 710.19611141 -43.96619813 732.7761302 33.79101562 723.65234375 C102.99029933 714.6244448 162.5185177 683.7587364 212.875 636.25 C213.55175781 635.61578125 214.22851562 634.9815625 214.92578125 634.328125 C219.15442753 630.24529411 222.82151722 625.76305626 226.5 621.18359375 C228.84647313 618.28523632 231.26265018 615.45787743 233.6875 612.625 C282.80081574 553.50711994 305.47888877 473.43905401 298.609375 397.30615234 C292.17729 332.69966703 265.83726194 271.31458164 221.8515625 223.41015625 C219.98374502 221.36884584 218.17552609 219.28811377 216.375 217.1875 C210.08242463 210.00010887 203.33384995 203.61325621 195.84375 197.68359375 C193.35988478 195.64747791 190.98999129 193.55197613 188.61328125 191.39453125 C184.15089268 187.40989165 179.47944864 183.90065448 174.5625 180.5 C173.70438721 179.90364746 172.84627441 179.30729492 171.9621582 178.69287109 C162.85678751 172.43909586 153.45540993 166.74118517 143.875 161.25 C143.23320801 160.87681641 142.59141602 160.50363281 141.93017578 160.11914062 C103.62560051 137.98160891 56.05856952 125.2967973 11.875 124.25 C11.0092334 124.22421875 10.1434668 124.1984375 9.25146484 124.171875 C-17.83035055 123.44909094 -44.7744576 125.87473038 -71.125 132.25 Z " fill="#424242" transform="translate(899.125,321.75)"/>
<path d="M0 0 C0.93311005 0.00021149 1.86622009 0.00042297 2.8276062 0.00064087 C18.50886864 0.03592701 33.63086497 1.01625498 49 4.375 C49.85754883 4.56223633 50.71509766 4.74947266 51.59863281 4.94238281 C62.61141475 7.46170353 72.85702539 11.43805369 83 16.375 C84.49466797 17.10009766 84.49466797 17.10009766 86.01953125 17.83984375 C95.34735406 22.65721719 103.66660417 28.8773361 111 36.375 C111.76699219 37.08398438 112.53398438 37.79296875 113.32421875 38.5234375 C138.12892744 61.89316304 145.56490012 95.52115522 147 128.375 C147.13189135 133.73096976 147.15395409 139.08427536 147.15771484 144.44140625 C147.16240068 145.97443787 147.16754704 147.50746814 147.17311096 149.04049683 C147.18426465 152.30652735 147.19275861 155.57254944 147.19923019 158.83859253 C147.21005135 164.01946255 147.23032831 169.20027051 147.25234985 174.38110352 C147.31381535 189.10137089 147.36825367 203.82163145 147.40136719 218.54199219 C147.41979515 226.69909121 147.44882106 234.85608271 147.4893719 243.01310253 C147.51028267 247.31256448 147.52587651 251.61189202 147.52817917 255.91140747 C147.530349 259.95657505 147.54645193 264.00146154 147.57256889 268.04654312 C147.5796718 269.51692269 147.58190761 270.98733665 147.57846642 272.45772934 C147.54895312 287.48555631 148.58125734 303.19918671 158.375 315.3125 C169.98734903 324.43648852 183.82500299 320.96562488 198 320.375 C198 337.205 198 354.035 198 371.375 C180.41586538 376.06410256 180.41586538 376.06410256 171.875 377.5625 C170.93414551 377.72975586 169.99329102 377.89701172 169.02392578 378.06933594 C158.01842083 379.96768608 147.16167967 380.67336811 136 380.375 C134.76378906 380.34664062 133.52757812 380.31828125 132.25390625 380.2890625 C111.54313208 379.56133834 94.64127336 373.57924504 80.0703125 358.359375 C72.36437204 349.38623544 68.29205218 337.73074174 65.5625 326.375 C65.39854736 325.69373047 65.23459473 325.01246094 65.06567383 324.31054688 C64.02724726 319.56013712 63.8653019 315.20258008 64 310.375 C62.68 310.375 61.36 310.375 60 310.375 C59.76152344 311.055625 59.52304687 311.73625 59.27734375 312.4375 C57.72651141 316.00394013 55.72046258 319.15637924 53.5625 322.375 C53.12437988 323.02927979 52.68625977 323.68355957 52.23486328 324.35766602 C39.09386182 343.61330338 22.59821779 358.55303198 2 369.375 C0.71802734 370.06529297 0.71802734 370.06529297 -0.58984375 370.76953125 C-6.59596779 373.75836075 -12.89412764 375.6780709 -19.3125 377.5625 C-20.57429077 377.93785889 -20.57429077 377.93785889 -21.86157227 378.32080078 C-34.48932 381.8772016 -47.14041483 382.75962392 -60.1875 382.6875 C-61.27158142 382.68376877 -61.27158142 382.68376877 -62.37756348 382.67996216 C-90.97013845 382.52817597 -117.70979393 376.18915054 -140 357.375 C-140.97646484 356.61509766 -140.97646484 356.61509766 -141.97265625 355.83984375 C-161.60086193 339.95777673 -171.19075009 313.73211559 -173.77294922 289.27636719 C-175.07250661 272.66998002 -175.05266421 255.60560104 -171 239.375 C-170.83371094 238.70259277 -170.66742187 238.03018555 -170.49609375 237.33740234 C-166.83225173 223.13322963 -160.76275714 209.43388335 -151 198.375 C-150.01966797 197.18197266 -150.01966797 197.18197266 -149.01953125 195.96484375 C-124.59762599 167.18347271 -85.96409296 157.81712329 -49.92530823 154.60926819 C-45.45632758 154.2513777 -40.98692161 154.03222515 -36.5078125 153.84765625 C-35.52757111 153.80633072 -34.54732971 153.76500519 -33.53738403 153.72242737 C-22.47750283 153.27998214 -11.41384134 153.06198871 -0.34716797 152.87231445 C3.12930851 152.81242578 6.60566054 152.74735698 10.08203125 152.68164062 C23.72289138 152.43238182 37.35697249 152.31749226 51 152.375 C50.93001789 147.39815061 50.84155721 142.42205557 50.73754883 137.44580078 C50.70474232 135.76066623 50.67658039 134.07543342 50.65356445 132.39013672 C50.36892979 112.07812285 48.43517975 90.00254081 34 74.375 C21.61026909 63.17618758 6.02656128 61.75121169 -10 62.375 C-24.17524471 63.63325206 -36.27565491 67.38617222 -45.6875 78.4375 C-52.41836543 87.63125028 -54.79758073 98.7507075 -57.19308472 109.69010925 C-57.45936676 110.9061232 -57.7256488 112.12213715 -58 113.375 C-70.81882871 113.48845042 -83.55559202 113.17878463 -96.35546875 112.5 C-98.12191161 112.40989909 -99.88837639 112.32022684 -101.65486145 112.23095703 C-106.23332925 111.99846099 -110.81148227 111.76026944 -115.3895874 111.52075195 C-120.08962158 111.27591258 -124.7899397 111.03665206 -129.49023438 110.796875 C-138.66043702 110.32827295 -147.83031583 109.85363326 -157 109.375 C-156.36096672 102.93756338 -155.31292583 97.00905381 -153.4375 90.8125 C-153.17573975 89.9469751 -152.91397949 89.0814502 -152.64428711 88.18969727 C-149.98158197 79.75870097 -146.35696155 72.05113427 -142 64.375 C-141.44570313 63.39273438 -140.89140625 62.41046875 -140.3203125 61.3984375 C-122.89198829 32.46241596 -93.39573099 14.73154822 -61.17285156 6.66748047 C-58.14257496 5.9523988 -55.1067075 5.27814744 -52.0625 4.625 C-50.68952759 4.32686401 -50.68952759 4.32686401 -49.28881836 4.02270508 C-33.0004251 0.72831223 -16.57551713 -0.03501126 0 0 Z M35.72314453 204.40612793 C5.27395055 204.56286869 5.27395055 204.56286869 -25 207.375 C-26.03398926 207.52557861 -26.03398926 207.52557861 -27.08886719 207.67919922 C-42.65092229 210.07364535 -56.19902752 215.24511642 -65.875 228.1875 C-76.46366331 244.60615675 -76.69816161 265.73710599 -73 284.375 C-69.88824987 296.088944 -63.33413292 305.17022049 -52.9921875 311.62890625 C-40.19136806 318.4309103 -22.9711325 318.31022008 -9.2109375 314.54296875 C14.20089601 306.02698552 31.49398505 290.46573531 42.3125 268.0625 C51.32695539 248.51805852 52.99737181 226.66772834 52 205.375 C50.97337105 204.1247116 50.97337105 204.1247116 48.77929688 204.26416016 C47.76931641 204.27237793 46.75933594 204.2805957 45.71875 204.2890625 C44.53667969 204.2984082 43.35460937 204.30775391 42.13671875 204.31738281 C39.99884149 204.34569129 37.8610095 204.3769002 35.72314453 204.40612793 Z " fill="#424242" transform="translate(901,549.625)"/>
<path d="M0 0 C1.03423483 1.01650325 2.06555243 2.03598421 3.09375 3.05859375 C3.57972656 3.54054199 4.06570313 4.02249023 4.56640625 4.51904297 C29.79277683 29.89147904 43.02474445 65.30451856 43.40625 100.80859375 C43.2661659 136.37628721 30.19888151 169.96541015 6.09375 196.05859375 C5.39427246 196.82381348 5.39427246 196.82381348 4.68066406 197.60449219 C-19.85816775 224.16436711 -55.27997124 239.73070754 -91.33203125 241.28125 C-123.32875455 242.14893495 -155.48669473 232.78668266 -180.90625 213.05859375 C-181.8446875 212.34058594 -182.783125 211.62257813 -183.75 210.8828125 C-213.76688471 187.14755113 -231.23559711 153.8341479 -236.30078125 116.12109375 C-240.21978624 80.17075465 -229.5172999 43.18554278 -207.26708984 14.73486328 C-203.08616276 9.58483721 -198.57341405 4.76774613 -193.90625 0.05859375 C-193.13023437 -0.7303125 -192.35421875 -1.51921875 -191.5546875 -2.33203125 C-171.29958115 -21.68227031 -142.74467253 -34.92557714 -114.90625 -37.94140625 C-113.3903125 -38.12316406 -113.3903125 -38.12316406 -111.84375 -38.30859375 C-70.59127706 -42.29763005 -29.84335905 -28.75208567 0 0 Z " fill="#424242" transform="translate(624.90625,224.94140625)"/>
<path d="M0 0 C1.85662766 0.00223572 1.85662766 0.00223572 3.75076294 0.0045166 C24.36483202 0.04892669 44.72269057 0.80406741 65.1875 3.3125 C66.32880371 3.45171875 67.47010742 3.5909375 68.64599609 3.734375 C129.76798203 11.54064194 188.20515281 30.792855 243.1875 58.3125 C244.15413574 58.79187012 245.12077148 59.27124023 246.11669922 59.76513672 C278.1221176 75.70184944 309.27612731 96.34566023 336.29296875 119.81640625 C338.98064256 122.13411686 341.72307505 124.35330193 344.5 126.5625 C356.45298701 136.33753959 367.32546867 147.35902228 378.25 158.25 C378.98929749 158.98527924 378.98929749 158.98527924 379.74353027 159.7354126 C385.44625637 165.41457765 390.96626873 171.18513823 396.1875 177.3125 C397.24420989 178.51597965 398.30278845 179.71782123 399.36328125 180.91796875 C406.29961555 188.81950051 412.92854106 196.86220006 419.1875 205.3125 C419.86570801 206.21983887 419.86570801 206.21983887 420.55761719 207.14550781 C436.48985403 228.5222531 451.57682224 250.80920868 464.1875 274.3125 C464.96915527 275.75471924 464.96915527 275.75471924 465.76660156 277.22607422 C503.24492706 346.63984305 527.10026327 427.96517654 527.390625 507.30078125 C527.39763931 508.59049835 527.40465363 509.88021545 527.41188049 511.20901489 C527.4312715 515.34768167 527.43631446 519.48629237 527.4375 523.625 C527.43794186 524.33027454 527.43838371 525.03554909 527.43883896 525.76219559 C527.44584551 547.08799364 527.14227008 568.14903075 524.1875 589.3125 C524.00853588 590.63766114 523.82983267 591.96285755 523.65136719 593.28808594 C511.06524226 685.52786565 475.24488051 771.23418694 405.53515625 862.75439453 C403.41835778 865.20175102 401.40119288 867.72752677 399.375 870.25 C396.41045314 873.9036037 393.3474689 877.28556179 389.95605469 880.54296875 C388.24890928 882.25105681 386.69052664 884.01827597 385.12890625 885.859375 C380.5728108 891.10044836 375.66902479 895.97695186 370.75 900.875 C369.84701172 901.78185547 368.94402344 902.68871094 368.01367188 903.62304688 C363.43206121 908.19802233 358.7983321 912.64139906 353.88354492 916.85717773 C351.72777599 918.70697457 349.64905415 920.63528271 347.5625 922.5625 C341.96803841 927.6043172 336.07852233 932.20369697 330.12109375 936.80273438 C328.17688104 938.32079137 326.25873185 939.86715633 324.34375 941.421875 C260.48818735 992.83933779 180.60829566 1028.14604601 1.125 1051.625 C-0.11330566 1051.62317719 -1.35161133 1051.62135437 -2.62744141 1051.61947632 C-22.5271197 1051.57039224 -42.07352699 1050.85987227 -61.8125 1048.3125 C-63.13584474 1048.14941304 -64.45925073 1047.9868224 -65.78271484 1047.82470703 C-98.02745003 1043.81341429 -129.91806063 1036.33348726 -160.8125 1026.3125 C-161.88177734 1025.96751465 -162.95105469 1025.6225293 -164.05273438 1025.26708984 C-179.66011326 1020.1786376 -194.80049805 1014.21698691 -209.82910156 1007.62060547 C-212.58613138 1006.41175393 -215.35045152 1005.22157371 -218.1171875 1004.03515625 C-251.81853803 989.42345092 -283.61522412 969.39821845 -313.0625 947.5625 C-313.72467529 947.07297852 -314.38685059 946.58345703 -315.0690918 946.07910156 C-317.86412394 943.96774904 -319.85152719 942.25395922 -321.8125 939.3125 C-313.8925 934.3625 -305.9725 929.4125 -297.8125 924.3125 C-292.91917067 927.10868819 -288.60783536 929.86643421 -284.1875 933.25 C-274.80465482 940.26150095 -264.86246838 946.31325618 -254.8125 952.3125 C-253.98540527 952.80862793 -253.15831055 953.30475586 -252.30615234 953.81591797 C-169.56023593 1003.16011559 -75.11625365 1025.29423387 121.19091797 1009.33691406 C178.76490648 994.74179492 234.66687492 970.81582708 283.1875 936.3125 C284.38137726 935.47246698 285.57537216 934.63260109 286.76953125 933.79296875 C298.59767431 925.3974186 310.03655684 916.59457001 321.1875 907.3125 C322.19296875 906.48234375 323.1984375 905.6521875 324.234375 904.796875 C336.29008348 894.77862026 347.58341782 883.99369518 358.6875 872.9375 C359.42895264 872.20072021 360.17040527 871.46394043 360.93432617 870.70483398 C365.55623996 866.06933401 369.93233849 861.28522886 374.1875 856.3125 C375.14926257 855.20661622 376.11147971 854.10112756 377.07421875 852.99609375 C389.72230562 838.3760653 401.28587805 823.28418381 412.1875 807.3125 C412.90365479 806.26715088 412.90365479 806.26715088 413.63427734 805.20068359 C426.62882848 786.18254292 438.09261256 766.15888334 448.14697266 745.43798828 C449.22858724 743.22857097 450.33802235 741.03451538 451.44921875 738.83984375 C476.23965818 689.17290456 490.58595179 633.84395724 496.5 578.8125 C496.58140228 578.05607208 496.66280457 577.29964417 496.74667358 576.52029419 C498.50234024 559.92812283 499.42462747 543.37270433 499.4375 526.6875 C499.43817474 525.88212799 499.43884949 525.07675598 499.43954468 524.24697876 C499.34665342 453.02716201 483.85494209 383.0434426 454.1875 318.3125 C453.72617676 317.30477539 453.26485352 316.29705078 452.78955078 315.25878906 C434.61562706 275.85836249 410.91914936 239.63708705 383.1875 206.3125 C382.36894531 205.31863281 381.55039063 204.32476562 380.70703125 203.30078125 C370.37457167 190.84173478 359.16528011 179.21488608 347.75 167.75 C347.0170874 167.01241455 346.2841748 166.2748291 345.52905273 165.51489258 C340.91044979 160.90992466 336.13825599 156.55628159 331.1875 152.3125 C330.11640134 151.37459496 329.04604529 150.43584093 327.9765625 149.49609375 C312.84037135 136.31050401 296.92219145 124.39009592 280.1875 113.3125 C279.44580566 112.82120605 278.70411133 112.32991211 277.93994141 111.82373047 C268.18480968 105.3873772 258.3283633 99.1249735 248.1875 93.3125 C246.95410889 92.60552979 246.95410889 92.60552979 245.69580078 91.88427734 C166.86423925 47.11344129 74.28017796 24.66651291 -69.8125 33.3125 C-70.74191406 33.43818359 -71.67132812 33.56386719 -72.62890625 33.69335938 C-104.42820195 38.09874704 -136.58515658 46.2377761 -166.60864258 57.56713867 C-168.8125 58.3125 -168.8125 58.3125 -170.8125 58.3125 C-171.84872938 54.39974073 -172.86378673 50.48179224 -173.875 46.5625 C-174.31682617 44.89574219 -174.31682617 44.89574219 -174.76757812 43.1953125 C-175.04150391 42.12539062 -175.31542969 41.05546875 -175.59765625 39.953125 C-175.85426025 38.96860352 -176.11086426 37.98408203 -176.37524414 36.96972656 C-177.07418627 32.72221895 -177.07418627 32.72221895 -175.8125 30.3125 C-173.34521484 29.06738281 -173.34521484 29.06738281 -170.0234375 28.015625 C-168.17008789 27.41959473 -168.17008789 27.41959473 -166.27929688 26.81152344 C-164.91573614 26.39396702 -163.55179225 25.97766009 -162.1875 25.5625 C-160.77919422 25.12305021 -159.37099256 24.68326659 -157.96289062 24.24316406 C-128.33227192 15.07327791 -98.17843567 8.26071584 -67.4375 4.0625 C-66.33591553 3.91135742 -65.23433105 3.76021484 -64.09936523 3.60449219 C-42.77019591 0.86867691 -21.49083176 -0.06446905 0 0 Z " fill="#424242" transform="translate(897.8125,213.6875)"/>
<path d="M0 0 C5.68468165 1.71862468 10.98423881 4.1641675 16.375 6.625 C17.30183594 7.04523437 18.22867188 7.46546875 19.18359375 7.8984375 C21.45694599 8.92964882 23.72902406 9.96356863 26 11 C25.74943848 11.56058105 25.49887695 12.12116211 25.24072266 12.69873047 C-10.30182815 92.53648745 -27.92443794 176.87756951 -14 325 C-19.54719353 329.0070021 -25.18825182 332.82701142 -31 336.4375 C-32.093125 337.11683594 -33.18625 337.79617188 -34.3125 338.49609375 C-37 340 -37 340 -39 340 C-41.52025611 331.59048563 -43.13716191 323.16601487 -44.5 314.5 C-44.60638794 313.83169159 -44.71277588 313.16338318 -44.8223877 312.474823 C-49.2237726 284.7361584 -51.2356761 257.25336903 -51.25 229.1875 C-51.25067474 227.99436188 -51.25134949 226.80122375 -51.25204468 225.57192993 C-51.23414895 205.56401015 -50.52406314 185.85251943 -48 166 C-47.91278687 165.31111694 -47.82557373 164.62223389 -47.73571777 163.91247559 C-40.4363828 106.97635174 -24.26637035 52.00792461 0 0 Z " fill="#424242" transform="translate(425,512)"/>
</svg>
