<svg version="1.1" id="Layer_1" xmlns="http://www.w3.org/2000/svg" xmlns:xlink="http://www.w3.org/1999/xlink" x="0px" y="0px"
	 width="100%" viewBox="0 0 200 200" enable-background="new 0 0 200 200" xml:space="preserve">
<path fill="#000000" opacity="1.000000" stroke="none" 
	d="
M128.000000,201.000000 
	C85.333336,201.000000 43.166672,201.000000 1.000006,201.000000 
	C1.000004,134.333344 1.000004,67.666679 1.000002,1.000015 
	C67.666656,1.000010 134.333313,1.000010 200.999969,1.000005 
	C200.999985,67.666649 200.999985,134.333298 201.000000,200.999969 
	C176.833328,201.000000 152.666672,201.000000 128.000000,201.000000 
M132.036758,169.508850 
	C134.150055,168.542252 136.378357,167.767517 138.359299,166.580139 
	C165.575775,150.266113 180.529785,121.539795 175.049988,88.229668 
	C168.152145,46.299587 127.894600,17.574793 83.619507,27.802553 
	C44.088535,36.934399 20.041887,74.236908 26.864191,114.140121 
	C35.168274,162.710190 86.845779,189.333588 132.036758,169.508850 
z"/>
<path fill="#424242" opacity="1.000000" stroke="none" 
	d="
M131.700012,169.690720 
	C86.845779,189.333588 35.168274,162.710190 26.864191,114.140121 
	C20.041887,74.236908 44.088535,36.934399 83.619507,27.802553 
	C127.894600,17.574793 168.152145,46.299587 175.049988,88.229668 
	C180.529785,121.539795 165.575775,150.266113 138.359299,166.580139 
	C136.378357,167.767517 134.150055,168.542252 131.700012,169.690720 
M105.432907,72.002052 
	C101.934830,72.005638 98.428841,72.157478 94.940887,71.971283 
	C91.422508,71.783463 89.782608,72.934807 89.807976,76.738174 
	C89.924622,94.227814 89.922470,111.719093 89.808022,129.208755 
	C89.783485,132.957672 91.317299,134.133957 94.887009,134.039215 
	C101.711815,133.858063 108.564125,134.311829 115.369911,133.908936 
	C125.755730,133.294067 134.591324,129.466385 140.942627,120.647270 
	C150.605545,107.229828 146.974747,87.091995 133.220871,77.954262 
	C124.979645,72.479004 115.666382,72.519890 105.432907,72.002052 
M75.071678,97.500008 
	C75.068466,90.850731 75.054977,84.201431 75.066765,77.552177 
	C75.071938,74.633011 75.307747,71.896164 70.877968,71.959946 
	C66.696930,72.020149 67.010521,74.629013 67.010262,77.329422 
	C67.008598,94.451317 67.010628,111.573204 67.008430,128.695099 
	C67.008080,131.414825 66.737183,133.990295 70.902679,134.040436 
	C75.354134,134.094009 75.064346,131.316620 75.063835,128.421753 
	C75.062080,118.447838 75.068367,108.473915 75.071678,97.500008 
M67.433731,55.163395 
	C65.134048,57.965073 65.400513,61.124584 68.059845,62.908482 
	C69.571289,63.922375 73.166641,63.642910 74.571564,62.459530 
	C75.815796,61.411503 76.224564,57.865318 75.407326,56.208805 
	C73.974892,53.305298 71.072952,52.314461 67.433731,55.163395 
z"/>
<path fill="#000000" opacity="1.000000" stroke="none" 
	d="
M105.919243,72.002144 
	C115.666382,72.519890 124.979645,72.479004 133.220871,77.954262 
	C146.974747,87.091995 150.605545,107.229828 140.942627,120.647270 
	C134.591324,129.466385 125.755730,133.294067 115.369911,133.908936 
	C108.564125,134.311829 101.711815,133.858063 94.887009,134.039215 
	C91.317299,134.133957 89.783485,132.957672 89.808022,129.208755 
	C89.922470,111.719093 89.924622,94.227814 89.807976,76.738174 
	C89.782608,72.934807 91.422508,71.783463 94.940887,71.971283 
	C98.428841,72.157478 101.934830,72.005638 105.919243,72.002144 
M130.917557,85.540672 
	C121.746597,77.829475 110.792839,80.185585 100.289352,80.327316 
	C99.519371,80.337700 98.142593,82.689377 98.126671,83.966003 
	C97.964661,96.956673 98.075378,109.950455 97.990135,122.942581 
	C97.970146,125.990662 99.264305,127.097519 102.187584,127.005623 
	C105.848381,126.890533 109.529114,127.191238 113.177872,126.953629 
	C123.201653,126.300842 131.761124,123.043633 135.964890,112.929512 
	C140.068008,103.057533 138.335709,94.096169 130.917557,85.540672 
z"/>
<path fill="#000000" opacity="1.000000" stroke="none" 
	d="
M75.071632,98.000000 
	C75.068367,108.473915 75.062080,118.447838 75.063835,128.421753 
	C75.064346,131.316620 75.354134,134.094009 70.902679,134.040436 
	C66.737183,133.990295 67.008080,131.414825 67.008430,128.695099 
	C67.010628,111.573204 67.008598,94.451317 67.010262,77.329422 
	C67.010521,74.629013 66.696930,72.020149 70.877968,71.959946 
	C75.307747,71.896164 75.071938,74.633011 75.066765,77.552177 
	C75.054977,84.201431 75.068466,90.850731 75.071632,98.000000 
z"/>
<path fill="#000000" opacity="1.000000" stroke="none" 
	d="
M67.716660,54.915134 
	C71.072952,52.314461 73.974892,53.305298 75.407326,56.208805 
	C76.224564,57.865318 75.815796,61.411503 74.571564,62.459530 
	C73.166641,63.642910 69.571289,63.922375 68.059845,62.908482 
	C65.400513,61.124584 65.134048,57.965073 67.716660,54.915134 
z"/>
<path fill="#424242" opacity="1.000000" stroke="none" 
	d="
M131.188293,85.785210 
	C138.335709,94.096169 140.068008,103.057533 135.964890,112.929512 
	C131.761124,123.043633 123.201653,126.300842 113.177872,126.953629 
	C109.529114,127.191238 105.848381,126.890533 102.187584,127.005623 
	C99.264305,127.097519 97.970146,125.990662 97.990135,122.942581 
	C98.075378,109.950455 97.964661,96.956673 98.126671,83.966003 
	C98.142593,82.689377 99.519371,80.337700 100.289352,80.327316 
	C110.792839,80.185585 121.746597,77.829475 131.188293,85.785210 
z"/>
</svg>