<?xml version="1.0" encoding="utf-8"?>
<svg viewBox="0 0 72 72" xmlns="http://www.w3.org/2000/svg">
  <g id="Symbols" stroke="none" stroke-width="1" fill="none" fill-rule="evenodd" transform="matrix(1, 0, 0, 1, 8.881784197001252e-16, 0)">
    <g id="hero" transform="translate(-924.000000, -72.000000)" fill-rule="nonzero">
      <g id="Group-4">
        <g id="vector_iD_icon" transform="translate(924.000000, 72.000000)">
          <path d="M 72 36 C 72 55.884 55.884 72 36 72 C 16.116 72 0 55.884 0 36 C 0 16.116 16.116 0 36 0 C 55.884 0 72 16.116 72 36 Z M 23.906 22.054 L 19.564 22.054 L 19.564 52.035 L 23.906 52.035 Z M 30.278 52.063 L 42.063 52.063 C 52.016 52.063 58.078 44.757 58.078 37.059 C 58.078 29.976 53.172 22.054 42.007 22.054 L 30.278 22.054 Z M 34.62 25.945 L 41.302 25.945 C 49.761 25.945 53.623 31.04 53.623 37.059 C 53.623 40.754 51.368 48.172 41.528 48.172 L 34.62 48.172 Z M 21.735 12.985 C 20.157 12.985 18.888 14.244 18.888 15.812 C 18.888 17.351 20.157 18.639 21.735 18.639 C 23.314 18.639 24.583 17.351 24.583 15.812 C 24.583 14.272 23.314 12.985 21.735 12.985 Z" id="Path" fill="#A6CE39"/>
          <g id="Group" transform="translate(18.868966, 12.910345)" fill="#FFFFFF">
            <path d="M 0.195 39.625 L 0.195 8.644 L 5.537 8.644 L 5.537 39.625 Z M 4.537 9.644 L 1.195 9.644 L 1.195 38.625 L 4.537 38.625 Z M 23.138 8.644 C 28.831 8.67 33.046 10.72 35.729 13.653 C 38.421 16.595 39.709 20.53 39.709 24.149 C 39.709 28.092 38.117 32.032 35.289 34.889 C 32.467 37.741 28.274 39.63 23.194 39.653 L 10.909 39.653 L 10.909 8.644 Z M 11.909 38.653 L 23.194 38.653 C 28.067 38.676 31.881 36.912 34.578 34.186 C 37.27 31.466 38.709 27.904 38.709 24.149 C 38.709 20.685 37.544 17.118 34.991 14.328 C 32.431 11.529 28.61 9.618 23.138 9.644 L 11.909 9.644 Z M 22.433 12.535 C 26.758 12.554 30.029 13.888 32.119 15.982 C 34.219 18.085 35.254 21.057 35.254 24.149 C 35.254 26.046 34.653 28.993 32.792 31.397 C 30.944 33.784 27.71 35.725 22.659 35.762 L 15.251 35.762 L 15.251 12.535 Z M 16.251 34.762 L 22.659 34.762 C 27.448 34.799 30.262 33.031 32.001 30.785 C 33.727 28.556 34.254 25.947 34.254 24.149 C 34.254 21.222 33.358 18.637 31.412 16.688 C 29.457 14.73 26.567 13.516 22.433 13.535 L 16.251 13.535 Z M 6.214 2.902 C 6.214 3.774 5.813 4.669 5.236 5.246 C 4.659 5.823 3.759 6.229 2.866 6.229 C 1.974 6.229 1.074 5.823 0.497 5.246 C -0.08 4.669 -0.481 3.774 -0.481 2.902 C -0.481 2.016 -0.08 1.12 0.498 0.546 C 1.076 -0.028 1.976 -0.425 2.866 -0.425 C 3.758 -0.425 4.659 -0.019 5.236 0.557 C 5.813 1.134 6.214 2.03 6.214 2.902 Z M 4.529 1.265 C 4.076 0.813 3.553 0.575 2.866 0.575 C 2.178 0.575 1.654 0.808 1.203 1.255 C 0.752 1.703 0.519 2.22 0.519 2.902 C 0.519 3.569 0.753 4.088 1.204 4.539 C 1.656 4.991 2.18 5.229 2.866 5.229 C 3.552 5.229 4.076 4.991 4.529 4.539 C 4.98 4.087 5.214 3.569 5.214 2.902 C 5.214 2.234 4.98 1.716 4.529 1.265 Z" style="fill: none;"/>
          </g>
        </g>
      </g>
    </g>
  </g>
</svg>