<?xml version="1.0" encoding="UTF-8"?>
<svg version="1.1" xmlns="http://www.w3.org/2000/svg" width="200" height="200">
<path d="M0 0 C6.69318066 5.92324615 12.57499597 12.18811605 17 20 C17.51175781 20.87914062 18.02351562 21.75828125 18.55078125 22.6640625 C27.81682648 39.72462221 29.97056384 60.05735091 25.5 78.9375 C21.04389544 92.91134704 14.55196478 103.86762734 4 114 C2.98099609 115.01320312 2.98099609 115.01320312 1.94140625 116.046875 C-14.39540581 131.39872334 -34.83903926 134.7243918 -56.37451172 134.13623047 C-75.36222913 133.15100206 -92.22248681 122.98451348 -104.98046875 109.4609375 C-117.59034961 95.43771064 -123.41367213 77.78557669 -123.3125 59.1875 C-123.30758545 58.12305664 -123.3026709 57.05861328 -123.29760742 55.96191406 C-123.18752438 48.5982051 -122.61483107 41.94137885 -120 35 C-119.64808594 34.01386719 -119.29617187 33.02773437 -118.93359375 32.01171875 C-110.93136586 11.22705422 -96.00566006 -2.88763435 -75.875 -11.875 C-50.65035636 -21.57929943 -21.1329162 -16.4429163 0 0 Z M-81.3125 12.375 C-81.869375 12.91125 -82.42625 13.4475 -83 14 C-82.81535634 18.34184202 -82.81535634 18.34184202 -81 22 C-78.0842309 22.41702122 -78.0842309 22.41702122 -75 22 C-72.85217329 20.44202118 -72.85217329 20.44202118 -72 18 C-72.34977824 15.29164947 -72.34977824 15.29164947 -74 13 C-77.07020272 11.0609246 -78.11706939 10.47501423 -81.3125 12.375 Z M-82 30 C-82 50.46 -82 70.92 -82 92 C-79.36 92 -76.72 92 -74 92 C-74 71.54 -74 51.08 -74 30 C-76.64 30 -79.28 30 -82 30 Z M-59 30 C-59 50.46 -59 70.92 -59 92 C-32.93540772 93.50116062 -32.93540772 93.50116062 -11 83 C-4.92431672 76.31409526 -1.88696843 67.9454607 -2.05859375 58.91796875 C-3.09603489 50.58635385 -6.01002319 43.49122971 -12.40625 37.89453125 C-26.65551511 27.48655899 -41.21882169 30 -59 30 Z " fill="#414141" transform="translate(148,41)"/>
<path d="M0 0 C27.89361702 0 27.89361702 0 36 7.9375 C40.38531593 14.65251502 40.80012662 21.13040022 40 29 C38.23740613 35.93427649 34.82597235 39.98867477 29 44 C20 47 20 47 0 47 C0 31.49 0 15.98 0 0 Z " fill="#414141" transform="translate(97,79)"/>
</svg>
