<?xml version="1.0" encoding="UTF-8" standalone="no"?>
<!-- Created with Inkscape (http://www.inkscape.org/) -->

<svg
   version="1.1"
   id="svg2"
   width="750.8667"
   height="320.93332"
   viewBox="0 0 750.8667 320.93332"
   sodipodi:docname="uh-car-dark-cmyk.eps"
   xmlns:inkscape="http://www.inkscape.org/namespaces/inkscape"
   xmlns:sodipodi="http://sodipodi.sourceforge.net/DTD/sodipodi-0.dtd"
   xmlns="http://www.w3.org/2000/svg"
   xmlns:svg="http://www.w3.org/2000/svg">
  <defs
     id="defs6" />
  <sodipodi:namedview
     id="namedview4"
     pagecolor="#ffffff"
     bordercolor="#000000"
     borderopacity="0.25"
     inkscape:showpageshadow="2"
     inkscape:pageopacity="0.0"
     inkscape:pagecheckerboard="0"
     inkscape:deskcolor="#d1d1d1" />
  <g
     id="g8"
     inkscape:groupmode="layer"
     inkscape:label="ink_ext_XXXXXX"
     transform="matrix(1.3333333,0,0,-1.3333333,0,320.93333)">
    <g
       id="g10"
       transform="scale(0.1)">
      <path
         d="m 409.711,2287.87 h 79.949 v -42.84 h 1.778 c 21.328,34.51 58.031,51.15 93.57,51.15 89.422,0 111.922,-50.55 111.922,-126.71 v -189.21 h -84.098 v 173.72 c 0,50.59 -14.797,75.58 -53.894,75.58 -45.594,0 -65.118,-25.6 -65.118,-88.05 v -161.25 h -84.109 v 307.61"
         style="fill:#232a29;fill-opacity:1;fill-rule:nonzero;stroke:none"
         id="path12" />
      <path
         d="m 742.633,2287.87 h 84.066 v -307.61 h -84.066 z m 84.066,32.88 h -84.066 v 84.32 h 84.066 v -84.32"
         style="fill:#232a29;fill-opacity:1;fill-rule:nonzero;stroke:none"
         id="path14" />
      <path
         d="m 1050.21,1980.26 h -93.55 l -104.836,307.61 h 88.246 l 64.55,-210.05 h 1.19 l 64.54,210.05 h 83.5 l -103.64,-307.61"
         style="fill:#232a29;fill-opacity:1;fill-rule:nonzero;stroke:none"
         id="path16" />
      <path
         d="m 1377.19,2167.09 c -7.69,42.81 -26.06,65.43 -66.92,65.43 -53.28,0 -68.7,-41.64 -69.87,-65.43 z m -136.79,-53.58 c 2.37,-53.54 28.43,-77.94 75.22,-77.94 33.75,0 60.98,20.85 66.33,39.89 h 74 c -23.69,-72.58 -74,-103.53 -143.29,-103.53 -96.54,0 -156.35,66.64 -156.35,161.82 0,92.22 63.35,162.43 156.35,162.43 104.22,0 154.56,-88.06 148.63,-182.67 H 1240.4"
         style="fill:#232a29;fill-opacity:1;fill-rule:nonzero;stroke:none"
         id="path18" />
      <path
         d="m 1493.34,2287.87 h 79.95 v -57.13 h 1.18 c 15.4,38.69 56.85,65.44 97.71,65.44 5.93,0 13.04,-1.18 18.37,-2.97 v -78.54 c -7.7,1.79 -20.15,2.99 -30.21,2.99 -61.59,0 -82.9,-44.62 -82.9,-98.77 v -138.63 h -84.1 v 307.61"
         style="fill:#232a29;fill-opacity:1;fill-rule:nonzero;stroke:none"
         id="path20" />
      <path
         d="m 1780.03,2080.21 c 0.58,-36.87 31.38,-51.76 64.55,-51.76 24.28,0 55.08,9.51 55.08,39.26 0,25.61 -34.95,34.52 -95.35,47.63 -48.57,10.68 -97.13,27.95 -97.13,82.1 0,78.51 67.52,98.74 133.25,98.74 66.92,0 128.5,-22.59 135.01,-98.18 h -79.93 c -2.37,32.74 -27.26,41.68 -57.45,41.68 -18.97,0 -46.79,-3.61 -46.79,-28.56 0,-30.36 47.38,-34.52 95.35,-45.82 49.15,-11.32 97.12,-29.16 97.12,-86.26 0,-80.93 -69.88,-107.11 -139.75,-107.11 -71.07,0 -140.38,26.78 -143.91,108.28 h 79.95"
         style="fill:#232a29;fill-opacity:1;fill-rule:nonzero;stroke:none"
         id="path22" />
      <path
         d="m 2020.54,2287.87 h 84.08 v -307.61 h -84.08 z m 84.08,32.88 h -84.08 v 84.32 h 84.08 v -84.32"
         style="fill:#232a29;fill-opacity:1;fill-rule:nonzero;stroke:none"
         id="path24" />
      <path
         d="m 2262.78,2287.87 h 61.6 v -56.53 h -61.6 v -152.3 c 0,-28.58 7.11,-35.7 35.52,-35.7 8.92,0 17.19,0.57 26.08,2.35 v -66.03 c -14.22,-2.38 -32.58,-2.96 -49.15,-2.96 -51.53,0 -96.55,11.9 -96.55,73.17 v 181.47 h -50.93 v 56.53 h 50.93 v 92.22 h 84.1 v -92.22"
         style="fill:#232a29;fill-opacity:1;fill-rule:nonzero;stroke:none"
         id="path26" />
      <path
         d="m 2521.65,1941.57 c -18.38,-49.35 -47.4,-69.58 -105.44,-69.58 -17.16,0 -34.33,1.18 -51.51,2.99 v 69.59 c 15.98,-1.2 32.57,-3.56 49.15,-3 29.02,3 38.5,33.35 29.02,57.75 l -107.78,288.55 h 90.01 l 69.29,-210.62 h 1.19 l 66.93,210.62 h 87.02 l -127.88,-346.3"
         style="fill:#232a29;fill-opacity:1;fill-rule:nonzero;stroke:none"
         id="path28" />
      <path
         d="m 2914.41,2035.57 c 57.45,0 74.62,49.41 74.62,98.18 0,49.4 -17.17,98.77 -74.62,98.77 -56.86,0 -74.05,-49.37 -74.05,-98.77 0,-48.77 17.19,-98.18 74.05,-98.18 z m 0,260.61 c 96.55,0 158.71,-64.26 158.71,-162.43 0,-97.57 -62.16,-161.82 -158.71,-161.82 -95.97,0 -158.24,64.25 -158.24,161.82 0,98.17 62.27,162.43 158.24,162.43"
         style="fill:#232a29;fill-opacity:1;fill-rule:nonzero;stroke:none"
         id="path30" />
      <path
         d="m 3128.3,2231.34 h -50.36 v 56.53 h 50.36 v 23.79 c 0,54.15 33.74,93.41 102.43,93.41 14.79,0 30.2,-1.79 44.43,-2.39 v -63.05 c -10.08,1.18 -20.16,1.78 -30.77,1.78 -22.53,0 -32.01,-9.51 -32.01,-35.12 v -18.42 h 58.04 v -56.53 h -58.04 v -251.08 h -84.08 v 251.08"
         style="fill:#232a29;fill-opacity:1;fill-rule:nonzero;stroke:none"
         id="path32" />
      <path
         d="m 621.332,1637.55 c -7.691,42.8 -26.059,65.43 -66.902,65.43 -53.301,0 -68.719,-41.66 -69.891,-65.43 z m -136.793,-53.56 c 2.375,-53.57 28.43,-77.93 75.207,-77.93 33.75,0 61.004,20.8 66.344,39.83 h 74.008 c -23.688,-72.54 -74.008,-103.5 -143.301,-103.5 -96.535,0 -156.34,66.63 -156.34,161.81 0,92.23 63.352,162.43 156.34,162.43 104.223,0 154.551,-88.06 148.633,-182.64 H 484.539"
         style="fill:#232a29;fill-opacity:1;fill-rule:nonzero;stroke:none"
         id="path34" />
      <path
         d="m 734.531,1758.33 h 79.965 v -57.12 h 1.168 c 15.399,38.69 56.867,65.42 97.734,65.42 5.903,0 13.012,-1.18 18.34,-2.97 v -78.52 c -7.695,1.78 -20.148,2.97 -30.195,2.97 -61.602,0 -82.91,-44.63 -82.91,-98.76 v -138.64 h -84.102 v 307.62"
         style="fill:#232a29;fill-opacity:1;fill-rule:nonzero;stroke:none"
         id="path36" />
      <path
         d="M 1144.97,1701.79 H 1083.4 V 1549.5 c 0,-28.57 7.1,-35.7 35.51,-35.7 8.91,0 17.19,0.56 26.06,2.34 v -66.01 c -14.2,-2.38 -32.55,-2.97 -49.14,-2.97 -51.53,0 -96.529,11.91 -96.529,73.18 v 181.45 h -50.942 v 56.54 h 50.942 v 92.21 h 84.099 v -92.21 h 61.57 49.82 v 23.8 c 0,54.13 33.77,93.41 102.46,93.41 14.8,0 30.2,-1.8 44.41,-2.4 v -63.05 c -10.07,1.16 -20.15,1.78 -30.8,1.78 -22.5,0 -31.98,-9.51 -31.98,-35.1 v -18.44 h 58.04 v -56.54 h -58.04 v -251.08 h -84.09 v 251.08 h -49.82"
         style="fill:#232a29;fill-opacity:1;fill-rule:nonzero;stroke:none"
         id="path38" />
      <path
         d="m 1513.44,1506.06 c 57.44,0 74.62,49.37 74.62,98.14 0,49.42 -17.18,98.78 -74.62,98.78 -56.84,0 -74.02,-49.36 -74.02,-98.78 0,-48.77 17.18,-98.14 74.02,-98.14 z m 0,260.57 c 96.53,0 158.71,-64.24 158.71,-162.43 0,-97.54 -62.18,-161.81 -158.71,-161.81 -95.94,0 -158.12,64.27 -158.12,161.81 0,98.19 62.18,162.43 158.12,162.43"
         style="fill:#232a29;fill-opacity:1;fill-rule:nonzero;stroke:none"
         id="path40" />
      <path
         d="m 1708.96,1758.33 h 79.95 v -57.12 h 1.17 c 15.4,38.69 56.87,65.42 97.74,65.42 5.91,0 13.01,-1.18 18.33,-2.97 v -78.52 c -7.69,1.78 -20.13,2.97 -30.18,2.97 -61.61,0 -82.92,-44.63 -82.92,-98.76 v -138.64 h -84.09 v 307.62"
         style="fill:#232a29;fill-opacity:1;fill-rule:nonzero;stroke:none"
         id="path42" />
      <path
         d="m 2064.93,1702.98 c -55.06,0 -74.02,-47.58 -74.02,-98.16 0,-48.21 21.92,-98.76 74.02,-98.76 55.67,0 72.26,48.77 72.26,99.35 0,49.99 -17.76,97.57 -72.26,97.57 z m 73.44,-213 h -1.18 c -19.55,-33.31 -53.9,-47.59 -92.98,-47.59 -92.38,0 -137.4,79.73 -137.4,164.82 0,82.7 45.59,159.42 135.62,159.42 36.13,0 71.67,-15.47 90.61,-45.81 h 1.19 v 154.72 h 84.09 v -424.83 h -79.95 v 39.27"
         style="fill:#232a29;fill-opacity:1;fill-rule:nonzero;stroke:none"
         id="path44" />
      <path
         d="m 2329.15,1550.68 c 0.58,-36.88 31.38,-51.76 64.55,-51.76 24.27,0 55.07,9.51 55.07,39.26 0,25.6 -34.94,34.49 -95.34,47.62 -48.56,10.69 -97.13,27.94 -97.13,82.1 0,78.51 67.51,98.73 133.24,98.73 66.93,0 128.51,-22.58 135.03,-98.17 h -79.95 c -2.37,32.75 -27.24,41.69 -57.46,41.69 -18.94,0 -46.78,-3.61 -46.78,-28.56 0,-30.34 47.39,-34.55 95.35,-45.81 49.15,-11.32 97.13,-29.18 97.13,-86.28 0,-80.95 -69.89,-107.11 -139.76,-107.11 -71.05,0 -140.36,26.79 -143.9,108.29 h 79.95"
         style="fill:#232a29;fill-opacity:1;fill-rule:nonzero;stroke:none"
         id="path46" />
      <path
         d="m 2564.33,1875.54 h 84.1 v -160.06 h 1.76 c 21.32,34.52 58.05,51.15 89.42,51.15 89.48,0 112.01,-50.55 112.01,-126.7 v -189.22 h -84.16 v 173.75 c 0,50.56 -14.8,75.56 -53.9,75.56 -45.6,0 -65.13,-25.6 -65.13,-88.06 v -161.25 h -84.1 v 424.83"
         style="fill:#232a29;fill-opacity:1;fill-rule:nonzero;stroke:none"
         id="path48" />
      <path
         d="m 2900.29,1758.33 h 84.07 v -307.62 h -84.07 z m 84.07,32.87 h -84.07 v 84.34 h 84.07 v -84.34"
         style="fill:#232a29;fill-opacity:1;fill-rule:nonzero;stroke:none"
         id="path50" />
      <path
         d="m 3032.94,1758.33 h 79.92 v -57.12 h 1.23 c 15.38,38.69 56.82,65.42 97.7,65.42 5.92,0 13.04,-1.18 18.37,-2.97 v -78.52 c -7.73,1.78 -20.16,2.97 -30.23,2.97 -61.57,0 -82.91,-44.63 -82.91,-98.76 v -138.64 h -84.08 v 307.62"
         style="fill:#232a29;fill-opacity:1;fill-rule:nonzero;stroke:none"
         id="path52" />
      <path
         d="m 3446.97,1637.55 c -7.71,42.8 -26.06,65.43 -66.94,65.43 -53.3,0 -68.65,-41.66 -69.89,-65.43 z m -136.83,-53.56 c 2.37,-53.57 28.46,-77.93 75.23,-77.93 33.76,0 61,20.8 66.31,39.83 h 74.06 c -23.7,-72.54 -74.06,-103.5 -143.33,-103.5 -96.53,0 -156.34,66.63 -156.34,161.81 0,92.23 63.38,162.43 156.34,162.43 104.22,0 154.59,-88.06 148.63,-182.64 h -220.9"
         style="fill:#232a29;fill-opacity:1;fill-rule:nonzero;stroke:none"
         id="path54" />
      <path
         d="m 4601.49,2406.97 h -316.72 v -567.59 c 0,-89.11 -45.86,-161.4 -158.5,-161.4 -111.84,0 -158.43,72.29 -158.43,161.4 0,0.22 0,567.59 0,567.59 h -316.89 c 0,0 0,-594.38 0,-597.33 0,-254.1 172.77,-395.43 475.32,-395.43 303.21,0 475.38,141.27 475.38,395.21 0,2.18 -0.16,597.55 -0.16,597.55"
         style="fill:#232a29;fill-opacity:1;fill-rule:nonzero;stroke:none"
         id="path56" />
      <path
         d="m 4680.9,2406.36 h 316.78 v -317.77 h 316.93 v 318.33 h 316.89 v -955.37 h -316.89 v 318.37 H 4997.68 V 1451.55 H 4680.9 v 954.81"
         style="fill:#232a29;fill-opacity:1;fill-rule:nonzero;stroke:none"
         id="path58" />
      <path
         d="m 360.844,2404.84 h -92.746 v -268.38 c 0,-48.54 -39.207,-87.94 -87.481,-87.94 -48.344,0 -87.4803,39.4 -87.4803,87.94 v 268.38 H 0 c 0,0 0,-278.19 0,-280.99 0,-84.49 80.7461,-152.96 180.281,-152.96 99.606,0 180.563,68.47 180.563,152.96 0,0.23 0,280.99 0,280.99"
         style="fill:#232a29;fill-opacity:1;fill-rule:nonzero;stroke:none"
         id="path60" />
      <path
         d="M 267.887,1710.72 H 93.0156 v 165.71 H 0.0273438 v -424.8 H 93.0156 v 165.86 H 267.887 v -165.86 h 92.933 v 424.8 h -92.933 v -165.71"
         style="fill:#232a29;fill-opacity:1;fill-rule:nonzero;stroke:none"
         id="path62" />
      <path
         d="m 2.15234,703.359 c 0,104.411 59.87106,176.731 153.74966,176.731 71.368,0 129.805,-42.141 140.34,-109.199 h -45.5 c -10.539,45.031 -45.98,69.449 -92.926,69.449 -68.9683,0 -110.1597,-51.731 -110.1597,-136.981 0,-85.269 40.7109,-138.91 110.1597,-138.91 53.649,0 90.528,31.129 98.672,92.442 h 44.063 c -11.496,-81.903 -64.18,-132.2 -144.168,-132.2 -95.7971,0 -154.23066,75.207 -154.23066,178.668"
         style="fill:#232a29;fill-opacity:1;fill-rule:nonzero;stroke:none"
         id="path64" />
      <path
         d="m 376.273,677.488 h 143.696 c -5.75,46.942 -31.137,72.321 -71.367,72.321 -39.278,0 -68.016,-23.938 -72.329,-72.321 z M 561.16,645.879 H 375.797 c 1.437,-55.559 30.176,-82.867 74.719,-82.867 36.402,0 57.476,18.207 68.492,49.34 l 40.234,-4.793 c -15.328,-51.25 -56.039,-80.469 -110.16,-80.469 -73.766,0 -117.352,54.129 -117.352,130.281 0,75.68 42.629,128.367 116.387,128.367 69.453,0 113.043,-46.468 113.043,-123.566 v -16.293"
         style="fill:#232a29;fill-opacity:1;fill-rule:nonzero;stroke:none"
         id="path66" />
      <path
         d="M 816.969,704.309 V 532.84 h -44.067 v 162.851 c 0,34 -15.808,52.207 -49.336,52.207 -34.007,0 -70.41,-18.679 -70.41,-77.597 V 532.84 h -44.058 v 247.148 h 41.187 v -34.957 c 16.766,26.328 46.461,41.188 82.863,41.188 51.731,0 83.821,-29.699 83.821,-81.91"
         style="fill:#232a29;fill-opacity:1;fill-rule:nonzero;stroke:none"
         id="path68" />
      <path
         d="m 941.055,593.672 c 0,-18.203 5.746,-23.953 23.945,-23.953 h 32.094 V 532.84 H 952.07 c -38.32,0 -55.086,16.769 -55.086,55.082 v 159.976 l -36.879,-1.918 v 34.008 l 36.879,-1.437 v 77.121 h 44.071 V 778.07 l 56.515,1.918 V 745.98 l -56.515,1.918 V 593.672"
         style="fill:#232a29;fill-opacity:1;fill-rule:nonzero;stroke:none"
         id="path70" />
      <path
         d="m 1166.67,786.219 v -43.11 c -5.27,0.481 -10.06,0.481 -15.81,0.481 -32.57,0 -68.97,-25.391 -70.89,-75.68 V 532.84 h -44.06 v 247.148 h 41.19 v -49.816 c 15.81,34.5 41.67,56.527 80.47,56.527 3.35,0 6.23,0 9.1,-0.48"
         style="fill:#232a29;fill-opacity:1;fill-rule:nonzero;stroke:none"
         id="path72" />
      <path
         d="m 1228,677.488 h 143.69 c -5.75,46.942 -31.13,72.321 -71.36,72.321 -39.28,0 -68.02,-23.938 -72.33,-72.321 z m 184.88,-31.609 h -185.36 c 1.44,-55.559 30.17,-82.867 74.72,-82.867 36.4,0 57.48,18.207 68.49,49.34 l 40.24,-4.793 c -15.33,-51.25 -56.04,-80.469 -110.17,-80.469 -73.76,0 -117.34,54.129 -117.34,130.281 0,75.68 42.62,128.367 116.38,128.367 69.46,0 113.04,-46.468 113.04,-123.566 v -16.293"
         style="fill:#232a29;fill-opacity:1;fill-rule:nonzero;stroke:none"
         id="path74" />
      <path
         d="M 1640.44,805.859 V 778.07 l 56.52,1.918 V 745.98 l -56.52,1.918 V 532.84 h -44.06 v 215.058 l -39.76,-1.918 v 34.008 l 39.76,-1.437 v 21.078 c 0,51.723 22.51,74.23 74.23,74.23 h 26.35 v -36.871 h -25.39 c -23.47,0 -31.13,-7.668 -31.13,-31.129"
         style="fill:#232a29;fill-opacity:1;fill-rule:nonzero;stroke:none"
         id="path76" />
      <path
         d="m 1907.72,658.328 c 0,56.043 -27.3,91 -75.2,91 -46.94,0 -74.72,-36.867 -74.72,-92.918 0,-56.031 28.26,-92.922 74.72,-92.922 47.9,0 75.2,38.801 75.2,94.84 z m -193.98,-1.918 c 0,79.52 49.33,129.809 120.22,129.809 68.97,0 117.83,-49.34 117.83,-127.891 0,-77.59 -49.81,-131.719 -119.27,-131.719 -70.89,0 -118.78,52.211 -118.78,129.801"
         style="fill:#232a29;fill-opacity:1;fill-rule:nonzero;stroke:none"
         id="path78" />
      <path
         d="m 2130.48,786.219 v -43.11 c -5.27,0.481 -10.06,0.481 -15.81,0.481 -32.57,0 -68.97,-25.391 -70.89,-75.68 V 532.84 h -44.06 v 247.148 h 41.19 v -49.816 c 15.81,34.5 41.67,56.527 80.47,56.527 3.35,0 6.23,0 9.1,-0.48"
         style="fill:#232a29;fill-opacity:1;fill-rule:nonzero;stroke:none"
         id="path80" />
      <path
         d="m 2467.7,671.75 -46.46,129.309 -11.01,35.453 -11.5,-35.453 -47.42,-129.309 z m 13.9,-38.801 H 2336.94 L 2300.06,532.84 h -47.41 l 132.19,341.019 h 50.3 L 2566.85,532.84 h -49.33 l -35.92,100.109"
         style="fill:#232a29;fill-opacity:1;fill-rule:nonzero;stroke:none"
         id="path82" />
      <path
         d="m 2586.05,610.922 h 42.15 c 4.31,-34.5 24.91,-48.863 62.75,-48.863 40.23,0 58.91,15.32 58.91,38.8 0,19.641 -12.93,30.653 -38.8,35.911 l -49.81,10.539 c -47.9,10.062 -68.49,32.089 -68.49,67.062 0,43.109 31.13,71.367 91.96,71.367 56.04,0 94.36,-24.429 100.59,-77.597 h -43.59 c -4.79,28.738 -23.47,42.629 -58.44,42.629 -31.13,0 -49.81,-10.54 -49.81,-32.571 0,-15.801 9.1,-26.82 38.32,-33.051 l 47.9,-10.527 c 51.25,-11.5 72.32,-34.012 72.32,-69.941 0,-48.371 -37.84,-78.071 -102.98,-78.071 -62.26,0 -97.23,27.782 -102.98,84.313"
         style="fill:#232a29;fill-opacity:1;fill-rule:nonzero;stroke:none"
         id="path84" />
      <path
         d="m 2894.54,593.672 c 0,-18.203 5.75,-23.953 23.95,-23.953 h 32.09 V 532.84 h -45.02 c -38.32,0 -55.09,16.769 -55.09,55.082 v 159.976 l -36.87,-1.918 v 34.008 l 36.87,-1.437 v 77.121 h 44.07 V 778.07 l 56.52,1.918 V 745.98 l -56.52,1.918 V 593.672"
         style="fill:#232a29;fill-opacity:1;fill-rule:nonzero;stroke:none"
         id="path86" />
      <path
         d="m 3120.16,786.219 v -43.11 c -5.27,0.481 -10.06,0.481 -15.81,0.481 -32.57,0 -68.98,-25.391 -70.89,-75.68 V 532.84 h -44.06 v 247.148 h 41.19 v -49.816 c 15.8,34.5 41.67,56.527 80.47,56.527 3.35,0 6.22,0 9.1,-0.48"
         style="fill:#232a29;fill-opacity:1;fill-rule:nonzero;stroke:none"
         id="path88" />
      <path
         d="m 3330.93,658.328 c 0,56.043 -27.29,91 -75.19,91 -46.95,0 -74.72,-36.867 -74.72,-92.918 0,-56.031 28.25,-92.922 74.72,-92.922 47.9,0 75.19,38.801 75.19,94.84 z m -193.98,-1.918 c 0,79.52 49.33,129.809 120.22,129.809 68.98,0 117.83,-49.34 117.83,-127.891 0,-77.59 -49.81,-131.719 -119.26,-131.719 -70.89,0 -118.79,52.211 -118.79,129.801"
         style="fill:#232a29;fill-opacity:1;fill-rule:nonzero;stroke:none"
         id="path90" />
      <path
         d="m 3604.46,662.172 c 0,56.508 -25.87,85.25 -68.5,85.25 -41.19,0 -71.37,-29.703 -71.37,-88.141 0,-58.422 30.18,-93.871 71.37,-93.871 42.63,0 68.5,39.27 68.5,96.762 z m 44.06,0 c 0,-76.652 -41.19,-134.602 -108.25,-134.602 -31.61,0 -57.47,14.371 -73.28,35.442 V 435.121 h -44.07 v 344.867 h 38.32 V 740.23 c 14.37,27.309 44.54,45.032 80.94,45.032 62.76,0 106.34,-48.383 106.34,-123.09"
         style="fill:#232a29;fill-opacity:1;fill-rule:nonzero;stroke:none"
         id="path92" />
      <path
         d="M 3904.32,704.309 V 532.84 h -44.06 v 162.851 c 0,34 -15.81,52.207 -49.34,52.207 -34,0 -70.41,-18.679 -70.41,-77.597 V 532.84 h -44.06 v 341.019 h 44.06 V 748.852 c 17.25,23.949 45.51,37.367 79.99,37.367 51.73,0 83.82,-29.699 83.82,-81.91"
         style="fill:#232a29;fill-opacity:1;fill-rule:nonzero;stroke:none"
         id="path94" />
      <path
         d="M 4174.51,779.988 4059.55,484.461 c -14.85,-37.832 -33.04,-49.34 -68.01,-49.34 h -27.3 v 36.891 h 22.99 c 22.51,0 31.13,7.187 41.19,33.047 l 11.5,30.171 -99.63,244.758 h 47.9 l 64.18,-170.508 5.27,-29.699 71.37,200.207 h 45.5"
         style="fill:#232a29;fill-opacity:1;fill-rule:nonzero;stroke:none"
         id="path96" />
      <path
         d="m 4191.29,610.922 h 42.15 c 4.31,-34.5 24.9,-48.863 62.75,-48.863 40.23,0 58.91,15.32 58.91,38.8 0,19.641 -12.93,30.653 -38.8,35.911 l -49.81,10.539 c -47.89,10.062 -68.49,32.089 -68.49,67.062 0,43.109 31.13,71.367 91.96,71.367 56.04,0 94.36,-24.429 100.58,-77.597 h -43.58 c -4.79,28.738 -23.47,42.629 -58.44,42.629 -31.13,0 -49.81,-10.54 -49.81,-32.571 0,-15.801 9.1,-26.82 38.32,-33.051 l 47.9,-10.527 c 51.25,-11.5 72.32,-34.012 72.32,-69.941 0,-48.371 -37.84,-78.071 -102.98,-78.071 -62.26,0 -97.24,27.782 -102.98,84.313"
         style="fill:#232a29;fill-opacity:1;fill-rule:nonzero;stroke:none"
         id="path98" />
      <path
         d="m 4438,779.988 h 44.06 V 532.84 H 4438 Z m 0,93.871 h 44.06 v -47.41 H 4438 v 47.41"
         style="fill:#232a29;fill-opacity:1;fill-rule:nonzero;stroke:none"
         id="path100" />
      <path
         d="m 4529.97,654.5 c 0,83.34 45.51,131.719 116.88,131.719 56.99,0 95.79,-30.18 104.41,-87.18 h -41.67 c -6.71,33.543 -27.78,50.289 -62.26,50.289 -49.82,0 -73.28,-34.476 -73.28,-92.918 0,-58.43 25.86,-92.922 72.8,-92.922 36.4,0 56.51,20.602 63.22,55.563 h 41.19 c -8.62,-57.949 -44.54,-92.442 -106.8,-92.442 -68.98,0 -114.49,44.551 -114.49,127.891"
         style="fill:#232a29;fill-opacity:1;fill-rule:nonzero;stroke:none"
         id="path102" />
      <path
         d="m 4777.64,610.922 h 42.15 c 4.31,-34.5 24.9,-48.863 62.74,-48.863 40.24,0 58.92,15.32 58.92,38.8 0,19.641 -12.93,30.653 -38.8,35.911 l -49.81,10.539 c -47.89,10.062 -68.49,32.089 -68.49,67.062 0,43.109 31.13,71.367 91.96,71.367 56.04,0 94.36,-24.429 100.58,-77.597 h -43.59 c -4.78,28.738 -23.46,42.629 -58.43,42.629 -31.14,0 -49.81,-10.54 -49.81,-32.571 0,-15.801 9.09,-26.82 38.31,-33.051 l 47.9,-10.527 c 51.25,-11.5 72.33,-34.012 72.33,-69.941 0,-48.371 -37.84,-78.071 -102.98,-78.071 -62.27,0 -97.24,27.782 -102.98,84.313"
         style="fill:#232a29;fill-opacity:1;fill-rule:nonzero;stroke:none"
         id="path104" />
      <path
         d="m 229.184,252.898 c 0,35.934 -23.465,55.563 -66.579,55.563 H 56.7578 V 192.07 h 98.1872 c 46.461,0 74.239,22.032 74.239,60.828 z M 278.52,6.23047 H 233.496 L 223.438,97.2305 C 219.125,137.469 201.883,153.27 162.129,153.27 H 56.7578 V 6.23047 H 12.2109 V 347.25 H 170.273 c 65.141,0 104.415,-35.441 104.415,-90.039 0,-44.07 -24.911,-75.199 -60.833,-85.262 29.7,-5.738 48.86,-25.379 52.211,-56.988 L 278.52,6.23047"
         style="fill:#232a29;fill-opacity:1;fill-rule:nonzero;stroke:none"
         id="path106" />
      <path
         d="M 366.215,150.879 H 509.91 c -5.75,46.941 -31.137,72.32 -71.367,72.32 -39.277,0 -68.016,-23.937 -72.328,-72.32 z M 551.102,119.262 H 365.734 c 1.442,-55.5511 30.176,-82.8636 74.723,-82.8636 36.402,0 57.477,18.211 68.492,49.3399 l 40.235,-4.7969 C 533.855,29.6914 493.145,0.480469 439.023,0.480469 c -73.765,0 -117.347,54.128931 -117.347,130.281531 0,75.679 42.625,128.367 116.383,128.367 69.457,0 113.043,-46.469 113.043,-123.578 v -16.289"
         style="fill:#232a29;fill-opacity:1;fill-rule:nonzero;stroke:none"
         id="path108" />
      <path
         d="m 579.879,84.3008 h 42.144 c 4.313,-34.4922 24.911,-48.8516 62.747,-48.8516 40.234,0 58.914,15.3203 58.914,38.8008 0,19.6289 -12.934,30.648 -38.797,35.91 l -49.817,10.539 c -47.894,10.063 -68.488,32.09 -68.488,67.063 0,43.109 31.133,71.367 91.961,71.367 56.043,0 94.359,-24.438 100.586,-77.598 h -43.586 c -4.793,28.739 -23.469,42.629 -58.434,42.629 -31.132,0 -49.816,-10.539 -49.816,-32.57 0,-15.801 9.102,-26.82 38.32,-33.051 l 47.899,-10.527 C 764.762,136.512 785.836,114 785.836,78.0703 785.836,29.6914 747.996,0 682.855,0 620.59,0 585.625,27.7813 579.879,84.3008"
         style="fill:#232a29;fill-opacity:1;fill-rule:nonzero;stroke:none"
         id="path110" />
      <path
         d="m 856.746,150.879 h 143.694 c -5.749,46.941 -31.135,72.32 -71.366,72.32 -39.273,0 -68.015,-23.937 -72.328,-72.32 z M 1041.63,119.262 H 856.27 c 1.441,-55.5511 30.175,-82.8636 74.718,-82.8636 36.403,0 57.477,18.211 68.492,49.3399 l 40.24,-4.7969 C 1024.39,29.6914 983.676,0.480469 929.555,0.480469 c -73.766,0 -117.348,54.128931 -117.348,130.281531 0,75.679 42.625,128.367 116.387,128.367 69.453,0 113.036,-46.469 113.036,-123.578 v -16.289"
         style="fill:#232a29;fill-opacity:1;fill-rule:nonzero;stroke:none"
         id="path112" />
      <path
         d="M 1241.4,92.9219 V 127.41 l -73.76,-11.019 c -34.49,-5.27 -47.9,-20.5902 -47.9,-42.6215 0,-25.3906 18.68,-39.7578 47.42,-39.7578 39.75,0 74.24,27.2969 74.24,58.9102 z m 73.29,-54.1211 V 6.23047 h -23.48 c -26.34,0 -40.71,11.96873 -42.62,36.39843 C 1232.78,18.6797 1201.17,0 1159.02,0 c -50.3,0 -82.86,26.3398 -82.86,71.8398 0,40.7192 24.42,69.4612 84.29,77.1212 l 63.23,8.148 c 11.97,1.43 17.72,7.172 17.72,18.68 v 10.543 c 0,25.848 -17.24,38.309 -55.56,38.309 -35.45,0 -53.17,-11.02 -56.04,-44.071 h -43.59 c 4.32,54.602 39.28,80.469 102.98,80.469 61.31,0 96.76,-24.898 96.76,-79.027 V 60.3516 c 0,-16.2813 5.26,-21.5508 21.55,-21.5508 h 7.19"
         style="fill:#232a29;fill-opacity:1;fill-rule:nonzero;stroke:none"
         id="path114" />
      <path
         d="M 1479,259.609 V 216.5 c -5.27,0.48 -10.06,0.48 -15.8,0.48 -32.57,0 -68.98,-25.39 -70.89,-75.679 V 6.23047 h -44.06 V 253.379 h 41.19 v -49.82 c 15.8,34.492 41.67,56.531 80.46,56.531 3.36,0 6.23,0 9.1,-0.481"
         style="fill:#232a29;fill-opacity:1;fill-rule:nonzero;stroke:none"
         id="path116" />
      <path
         d="m 1495.79,127.891 c 0,83.339 45.51,131.718 116.87,131.718 57,0 95.8,-30.179 104.42,-87.179 h -41.67 c -6.71,33.531 -27.78,50.289 -62.27,50.289 -49.81,0 -73.28,-34.481 -73.28,-92.918 0,-58.4416 25.86,-92.9221 72.8,-92.9221 36.41,0 56.52,20.6016 63.23,55.5625 h 41.19 C 1708.46,34.4883 1672.53,0 1610.27,0 1541.3,0 1495.79,44.5508 1495.79,127.891"
         style="fill:#232a29;fill-opacity:1;fill-rule:nonzero;stroke:none"
         id="path118" />
      <path
         d="M 1970.48,177.699 V 6.23047 h -44.07 V 169.078 c 0,34 -15.81,52.211 -49.33,52.211 -34.01,0 -70.41,-18.687 -70.41,-77.598 V 6.23047 H 1762.6 V 347.25 h 44.07 V 222.238 c 17.24,23.953 45.5,37.371 79.99,37.371 51.73,0 83.82,-29.699 83.82,-81.91"
         style="fill:#232a29;fill-opacity:1;fill-rule:nonzero;stroke:none"
         id="path120" />
    </g>
  </g>
</svg>
